<svg width="49" height="50" viewBox="0 0 49 50" fill="none" xmlns="http://www.w3.org/2000/svg">
<g id="Group">
<path id="Vector" d="M24.3321 13.2735C27.7397 13.2735 30.5021 10.5259 30.5021 7.13671C30.5021 3.74748 27.7397 1 24.3321 1C20.9245 1 18.1621 3.74748 18.1621 7.13671C18.1621 10.5259 20.9245 13.2735 24.3321 13.2735Z" stroke="white" stroke-miterlimit="10" stroke-linecap="round" stroke-linejoin="round"/>
<path id="Vector_2" d="M24.3333 16.2871H19.451C17.1439 16.2871 15.0247 17.6211 14.0858 19.729L11.1617 26.1059C10.8398 26.7996 10.3033 27.3866 9.6595 27.8135L2.36282 32.296C0.994698 33.1231 0.592318 34.9107 1.45075 36.2448C2.28236 37.5522 4.02602 37.9524 5.36732 37.152L13.7639 32.0825C14.4345 31.6823 14.971 31.122 15.3198 30.4283L18.1633 25.0386" stroke="white" stroke-miterlimit="10" stroke-linecap="round" stroke-linejoin="round"/>
<path id="Vector_3" d="M15.9359 29.2305V34.1131C15.9359 35.2871 15.3457 36.3811 14.3532 37.0214L7.88809 41.2638C5.87614 42.5978 5.36647 45.3194 6.78825 47.2671C7.59303 48.361 8.88068 49.0014 10.222 49.0014H24.3056" stroke="white" stroke-miterlimit="10" stroke-linecap="round" stroke-linejoin="round"/>
<path id="Vector_4" d="M24.332 16.2871H29.2143C31.5214 16.2871 33.6406 17.6211 34.5795 19.729L37.5036 26.1059C37.8255 26.7996 38.362 27.3866 39.0059 27.8135L46.3025 32.296C47.6707 33.1231 48.073 34.9107 47.2146 36.2448C46.383 37.5522 44.6393 37.9524 43.298 37.152L34.9015 32.0825C34.2308 31.6823 33.6943 31.122 33.3456 30.4283L30.502 25.0386" stroke="white" stroke-miterlimit="10" stroke-linecap="round" stroke-linejoin="round"/>
<path id="Vector_5" d="M32.7323 29.2305V34.1131C32.7323 35.2871 33.3225 36.3811 34.3151 37.0214L40.7801 41.2638C42.7921 42.5978 43.3017 45.3194 41.88 47.2671C41.0752 48.361 39.7875 49.0014 38.4462 49.0014H24.3626H19.4534C17.4146 49.0014 15.7246 47.3472 15.7246 45.2927C15.7246 43.345 17.2269 41.744 19.1852 41.6106L30.5058 40.8102" stroke="white" stroke-miterlimit="10" stroke-linecap="round" stroke-linejoin="round"/>
<path id="Vector_6" d="M24.7893 37.1536C24.682 37.1536 24.6016 37.127 24.5479 37.0469L21.8653 34.3788C21.0605 33.5783 21.0605 32.2442 21.8653 31.4438C22.2677 31.0436 22.7774 30.8301 23.3407 30.8301C23.9041 30.8301 24.4137 31.0436 24.8161 31.4438C25.2185 31.0436 25.7282 30.8301 26.2916 30.8301C26.8549 30.8301 27.3646 31.0436 27.767 31.4438C28.1694 31.844 28.384 32.3509 28.384 32.9112C28.384 33.4449 28.1694 33.9785 27.767 34.3788L25.0844 37.0469C24.9771 37.127 24.8698 37.1536 24.7893 37.1536Z" fill="white"/>
</g>
</svg>
