<svg width="42" height="45" viewBox="0 0 42 45" fill="none" xmlns="http://www.w3.org/2000/svg">
<g id="Group">
<path id="Vector" d="M38.3139 13.3088C40.8382 17.7939 41.7278 22.1557 40.7421 27.4047" stroke="black" stroke-miterlimit="10" stroke-linecap="round"/>
<path id="Vector_2" d="M26.7491 3.96924C28.6243 4.48674 30.4515 5.32461 32.1585 6.48283C33.625 7.4932 34.9473 8.67606 36.0773 10.0314" stroke="black" stroke-miterlimit="10" stroke-linecap="round"/>
<path id="Vector_3" d="M7.37207 8.82449C10.1849 6.23697 13.695 4.46267 17.3734 3.69873" stroke="black" stroke-miterlimit="10" stroke-linecap="round"/>
<path id="Vector_4" d="M4.72747 11.7571C3.33305 13.6792 2.25115 15.8725 1.62607 18.3121C-0.826179 27.7751 4.17454 37.6816 12.2766 41.9448C14.1518 42.9306 16.2194 43.6206 18.3831 43.9163C18.4552 43.9409 18.5274 43.9409 18.5995 43.9409C19.1765 44.0149 19.7776 44.0642 20.3786 44.0888" stroke="black" stroke-miterlimit="10" stroke-linecap="round"/>
<path id="Vector_5" d="M27.4281 8.52809C27.884 4.56788 25.7416 1.05364 22.6428 0.67879C19.5441 0.303943 16.6624 3.21044 16.2064 7.17065C15.7505 11.1309 17.8929 14.6452 20.9917 15.02C24.0904 15.3949 26.9721 12.4883 27.4281 8.52809Z" stroke="black" stroke-miterlimit="10" stroke-linecap="round"/>
<path id="Vector_6" d="M32.8811 19.347C34.5159 16.4638 39.0598 12.6934 39.9253 11.683C40.8149 10.648 41.1996 8.92299 39.9253 8.43013C38.6511 7.93727 37.6173 8.7012 37.6173 8.7012L31.6069 13.8763C31.6069 13.8763 25.1156 18.7309 21.0045 18.2381C16.9174 17.7452 14.2969 16.0695 12.1812 14.0734C10.0656 12.0773 7.80566 8.94764 6.69974 8.3562C5.59383 7.76477 4.39174 7.76477 3.9109 9.12014C3.43007 10.4755 4.65619 11.7323 4.65619 11.7323C4.65619 11.7323 8.83945 16.4884 10.907 19.1499C13.0708 21.9345 14.1286 23.6596 13.2871 27.9474C12.3495 32.7528 12.2534 42.0186 12.2534 42.0186C14.5133 43.3987 17.9032 44.0887 20.7401 44.1626" stroke="black" stroke-miterlimit="10" stroke-linecap="round"/>
<path id="Vector_7" d="M30.7168 42.6097H28.6252C28.4809 42.6097 28.3607 42.4865 28.3607 42.3386V22.2052C28.3607 21.4659 28.9617 20.8499 29.683 20.8499C30.4042 20.8499 31.0053 21.4659 31.0053 22.2052V42.3386C31.0053 42.4865 30.8851 42.6097 30.7168 42.6097Z" stroke="black" stroke-miterlimit="10" stroke-linecap="round"/>
<path id="Vector_8" d="M34.9959 42.6099H24.634C23.7685 42.6099 23.0713 43.3245 23.0713 44.2117V44.5813C23.0713 44.8031 23.2636 45.0002 23.48 45.0002H36.1259C36.3423 45.0002 36.5346 44.8031 36.5346 44.5813V44.2117C36.5587 43.3245 35.8614 42.6099 34.9959 42.6099Z" fill="black"/>
<path id="Vector_9" d="M31.0039 24.2504L33.7927 24.0779C34.1774 24.0532 34.5621 24.1271 34.8986 24.2997L38.2405 26" stroke="black" stroke-miterlimit="10" stroke-linecap="round"/>
<path id="Vector_10" d="M40.9827 34.5273C40.9827 36.5727 39.3719 38.2484 37.3524 38.2484C35.3569 38.2484 33.7221 36.5727 33.7221 34.5273" stroke="black" stroke-miterlimit="10" stroke-linecap="round"/>
<path id="Vector_11" d="M40.9827 34.527H33.7221L34.7799 31.8902L37.3524 25.5569L39.9249 31.8902L40.9827 34.527Z" stroke="black" stroke-miterlimit="10" stroke-linecap="round" stroke-linejoin="round"/>
<path id="Vector_12" d="M25.5955 31.126C25.5955 33.1714 23.9848 34.8471 21.9653 34.8471C19.9698 34.8471 18.335 33.1714 18.335 31.126" stroke="black" stroke-miterlimit="10" stroke-linecap="round"/>
<path id="Vector_13" d="M25.5955 31.1263H18.335L19.3928 28.4895L21.9653 22.1562L24.5137 28.4895L25.5955 31.1263Z" stroke="black" stroke-miterlimit="10" stroke-linecap="round" stroke-linejoin="round"/>
<path id="Vector_14" d="M28.3595 23.5859L26.316 22.2059C26.0275 22.0087 25.6909 21.8855 25.3303 21.8855H20.57" stroke="black" stroke-miterlimit="10" stroke-linecap="round"/>
</g>
</svg>
