<svg width="41" height="49" viewBox="0 0 41 49" fill="none" xmlns="http://www.w3.org/2000/svg">
<g id="Group">
<path id="Vector" d="M16.7375 44.949C8.48399 41.4043 2.2474 26.5325 2.2474 17.764C2.2474 8.54248 9.75785 1 18.9402 1H21.7268C30.9091 1 38.4195 8.54248 38.4195 17.764C38.4195 26.7724 31.8114 42.2571 23.2129 45.2155" stroke="white" stroke-miterlimit="10" stroke-linecap="round"/>
<path id="Vector_2" d="M2.43307 20.616L2.24728 24.4805C1.55727 24.4805 1 25.0402 1 25.7331C1 27.2523 1.74307 28.6915 3.01692 29.5444L5.43194 31.1968" stroke="white" stroke-miterlimit="10" stroke-linecap="round"/>
<path id="Vector_3" d="M38.2333 20.616L38.419 24.4805C39.109 24.4805 39.6664 25.0402 39.6664 25.7331C39.6664 27.2523 38.9233 28.6915 37.6494 29.5444L35.2344 31.1968" stroke="white" stroke-miterlimit="10" stroke-linecap="round"/>
<path id="Vector_4" d="M6.83855 21.3622L11.0317 16.8048C11.7217 16.0585 12.1728 15.1524 12.332 14.1396L13.0751 9.87528C13.2343 8.99577 14.3489 8.7559 14.8532 9.44885L16.6047 11.8475C17.5601 13.1535 19.0728 13.8997 20.6651 13.8997H27.7775C30.9621 13.8997 33.5629 16.5116 33.5629 19.7098V21.3622" stroke="white" stroke-miterlimit="10" stroke-linecap="round"/>
<g id="Group_2">
<path id="Vector_5" d="M13.8443 43.2162C13.8443 43.2162 11.8273 40.2312 13.8177 36.6065C16.2327 32.1823 18.0108 28.9308 20.3462 28.9308" stroke="white" stroke-miterlimit="10" stroke-linecap="round"/>
<path id="Vector_6" d="M26.8482 43.1894C26.8482 43.1894 28.8386 40.2311 26.8482 36.6064C24.4331 32.1822 22.5755 28.9307 20.3197 28.9307" stroke="white" stroke-miterlimit="10" stroke-linecap="round"/>
</g>
<path id="Vector_7" d="M22.1509 40.4181C22.1509 41.804 21.3548 42.4703 20.3463 42.4703C19.3379 42.4703 18.5417 41.804 18.5417 40.4181C18.5417 39.0322 19.6829 37.4597 20.3463 37.4597C21.0098 37.4597 22.1509 39.0322 22.1509 40.4181Z" fill="white"/>
<path id="Vector_8" d="M20.3467 48.9998C19.8159 48.9998 19.3913 48.5734 19.3913 48.0404V42.2036C19.3913 41.6706 19.8159 41.2441 20.3467 41.2441C20.8775 41.2441 21.3021 41.6706 21.3021 42.2036V48.0404C21.3021 48.5468 20.8775 48.9998 20.3467 48.9998Z" fill="white"/>
<path id="Vector_9" d="M16.6573 23.3875C16.6573 24.5075 15.9408 25.4408 14.0566 25.4408C12.2254 25.4408 11.4557 24.5341 11.4557 23.3875" stroke="white" stroke-miterlimit="10" stroke-linecap="round"/>
<path id="Vector_10" d="M29.2107 23.3875C29.2107 24.5075 28.4942 25.4408 26.6099 25.4408C24.7788 25.4408 24.0091 24.5341 24.0091 23.3875" stroke="white" stroke-miterlimit="10" stroke-linecap="round"/>
</g>
</svg>
