<svg width="50" height="47" viewBox="0 0 50 47" fill="none" xmlns="http://www.w3.org/2000/svg">
<g id="Group">
<path id="Vector" d="M29.0037 6.94653V3.26798C29.0037 2.02336 29.9901 1 31.1899 1H34.7358C35.9356 1 36.922 2.02336 36.922 3.26798V6.94653" stroke="black" stroke-miterlimit="10" stroke-linecap="round" stroke-linejoin="round"/>
<path id="Vector_2" d="M32.9767 13.8064C35.4504 13.8064 37.4558 11.726 37.4558 9.15977C37.4558 6.59353 35.4504 4.51318 32.9767 4.51318C30.503 4.51318 28.4976 6.59353 28.4976 9.15977C28.4976 11.726 30.503 13.8064 32.9767 13.8064Z" stroke="black" stroke-miterlimit="10" stroke-linecap="round" stroke-linejoin="round"/>
<path id="Vector_3" d="M7.14198 24.0393C9.6157 24.0393 11.6211 21.9589 11.6211 19.3927C11.6211 16.8264 9.6157 14.7461 7.14198 14.7461C4.66825 14.7461 2.6629 16.8264 2.6629 19.3927C2.6629 21.9589 4.66825 24.0393 7.14198 24.0393Z" stroke="black" stroke-miterlimit="10" stroke-linecap="round" stroke-linejoin="round"/>
<path id="Vector_4" d="M29.0846 10.2104H36.8163C37.0563 10.2104 37.1896 10.4594 37.083 10.6806L36.2031 12.3678L34.4702 13.5294H31.4575L29.5112 12.1189L28.818 10.6806C28.7114 10.4594 28.8713 10.2104 29.0846 10.2104Z" fill="black"/>
<path id="Vector_5" d="M22.4722 39.4449C21.859 39.4449 21.2457 39.2236 20.7658 38.8364L5.99557 27.0263C4.7425 26.003 2.90288 26.2519 1.91642 27.5795L1.59648 27.9943C0.63668 29.2943 0.849971 31.2027 2.12971 32.2261L18.3397 45.1701C19.0062 45.7233 19.8327 45.9999 20.6859 45.9999H45.8273C46.7071 45.9999 47.4803 45.6403 48.0669 45.0318C48.6267 44.451 49 43.6213 49 42.7085C49 40.9108 47.587 39.4172 45.8273 39.4172H22.4722V39.4449Z" stroke="black" stroke-miterlimit="10" stroke-linecap="round" stroke-linejoin="round"/>
<path id="Vector_6" d="M21.112 38.9749C21.352 39.1685 21.6719 39.2791 21.9918 39.2791L29.7769 39.4451C30.2301 39.4451 30.6834 39.3344 31.0833 39.1408L35.4824 36.9835C36.1489 36.6516 36.9221 36.5686 37.6419 36.7899L46.2802 39.1961C47.1333 39.4451 48.0398 39.0579 48.493 38.2558C49.1062 37.1771 48.653 35.7942 47.5332 35.324L37.0021 30.788C36.1489 30.4285 35.2158 30.4285 34.3626 30.7604L28.5238 33.1113C28.3372 33.1943 28.1239 33.222 27.9373 33.222H23.2449C22.7384 33.222 22.2318 33.056 21.8319 32.7241L13.7802 26.3074C13.3003 25.9202 12.7138 25.7266 12.1272 25.7266C11.3274 25.7266 10.5275 26.1138 9.99432 26.8052C9.08784 28.0222 9.30113 29.7647 10.4742 30.705L21.112 38.9749Z" stroke="black" stroke-miterlimit="10" stroke-linecap="round" stroke-linejoin="round"/>
<path id="Vector_7" d="M16.5265 28.465L26.2578 18.2314C27.0043 17.4294 28.0441 16.9868 29.1372 16.9868H37.0289C38.0954 16.9868 39.1351 17.4294 39.9083 18.2314L46.6802 25.3673C47.2668 25.9758 47.3734 26.9438 46.9202 27.6629L43.3209 33.4711" stroke="black" stroke-miterlimit="10" stroke-linecap="round" stroke-linejoin="round"/>
<path id="Vector_8" d="M37.8022 23.5972L39.9356 25.9758C40.4956 26.5843 40.5489 27.5246 40.0956 28.2161L38.0956 31.2309" stroke="black" stroke-miterlimit="10" stroke-linecap="round" stroke-linejoin="round"/>
<path id="Vector_9" d="M20.4457 31.5902L27.0044 24.482C27.2977 24.1777 27.8042 24.3714 27.8042 24.8139V33.222" stroke="black" stroke-miterlimit="10" stroke-linecap="round" stroke-linejoin="round"/>
</g>
</svg>
