<svg width="28" height="28" viewBox="0 0 28 28" fill="none" xmlns="http://www.w3.org/2000/svg">
<g id="interface/basket">
<path id="Vector" d="M25.6667 9.91665H22.7909L18.4742 3.43582C18.3025 3.17838 18.0355 2.99971 17.732 2.9391C17.4286 2.8785 17.1135 2.94093 16.856 3.11265C16.5986 3.28438 16.4199 3.55134 16.3593 3.85481C16.2987 4.15827 16.3611 4.47338 16.5329 4.73082L19.9874 9.91665H8.01269L11.4707 4.73082C11.6424 4.47338 11.7048 4.15827 11.6442 3.85481C11.5836 3.55134 11.405 3.28438 11.1475 3.11265C10.8901 2.94093 10.575 2.8785 10.2715 2.9391C9.96804 2.99971 9.70108 3.17838 9.52935 3.43582L5.20919 9.91665H2.33335C2.02393 9.91665 1.72719 10.0396 1.5084 10.2584C1.2896 10.4772 1.16669 10.7739 1.16669 11.0833C1.16669 11.3927 1.2896 11.6895 1.5084 11.9083C1.72719 12.1271 2.02393 12.25 2.33335 12.25H3.50002V21.5833C3.50002 22.5116 3.86877 23.4018 4.52515 24.0582C5.18152 24.7146 6.07176 25.0833 7.00002 25.0833H21C21.9283 25.0833 22.8185 24.7146 23.4749 24.0582C24.1313 23.4018 24.5 22.5116 24.5 21.5833V12.25H25.6667C25.9761 12.25 26.2729 12.1271 26.4916 11.9083C26.7104 11.6895 26.8334 11.3927 26.8334 11.0833C26.8334 10.7739 26.7104 10.4772 26.4916 10.2584C26.2729 10.0396 25.9761 9.91665 25.6667 9.91665ZM22.1667 21.5833C22.1667 21.8927 22.0438 22.1895 21.825 22.4083C21.6062 22.6271 21.3094 22.75 21 22.75H7.00002C6.6906 22.75 6.39386 22.6271 6.17506 22.4083C5.95627 22.1895 5.83335 21.8927 5.83335 21.5833V12.25H22.1667V21.5833ZM8.16669 19.8333V15.1667C8.16669 14.8572 8.2896 14.5605 8.5084 14.3417C8.72719 14.1229 9.02393 14 9.33335 14C9.64277 14 9.93952 14.1229 10.1583 14.3417C10.3771 14.5605 10.5 14.8572 10.5 15.1667V19.8333C10.5 20.1427 10.3771 20.4395 10.1583 20.6583C9.93952 20.8771 9.64277 21 9.33335 21C9.02393 21 8.72719 20.8771 8.5084 20.6583C8.2896 20.4395 8.16669 20.1427 8.16669 19.8333ZM12.8334 19.8333V15.1667C12.8334 14.8572 12.9563 14.5605 13.1751 14.3417C13.3939 14.1229 13.6906 14 14 14C14.3094 14 14.6062 14.1229 14.825 14.3417C15.0438 14.5605 15.1667 14.8572 15.1667 15.1667V19.8333C15.1667 20.1427 15.0438 20.4395 14.825 20.6583C14.6062 20.8771 14.3094 21 14 21C13.6906 21 13.3939 20.8771 13.1751 20.6583C12.9563 20.4395 12.8334 20.1427 12.8334 19.8333ZM17.5 19.8333V15.1667C17.5 14.8572 17.6229 14.5605 17.8417 14.3417C18.0605 14.1229 18.3573 14 18.6667 14C18.9761 14 19.2729 14.1229 19.4916 14.3417C19.7104 14.5605 19.8334 14.8572 19.8334 15.1667V19.8333C19.8334 20.1427 19.7104 20.4395 19.4916 20.6583C19.2729 20.8771 18.9761 21 18.6667 21C18.3573 21 18.0605 20.8771 17.8417 20.6583C17.6229 20.4395 17.5 20.1427 17.5 19.8333Z" fill="white"/>
</g>
</svg>
