<svg width="28" height="28" viewBox="0 0 28 28" fill="none" xmlns="http://www.w3.org/2000/svg">
<g id="business and finance/discount">
<path id="Vector" d="M14 1.1665C11.4618 1.1665 8.98064 1.91917 6.87021 3.32931C4.75978 4.73946 3.1149 6.74375 2.14357 9.08873C1.17225 11.4337 0.918105 14.0141 1.41328 16.5035C1.90846 18.9929 3.13072 21.2796 4.92549 23.0744C6.72026 24.8692 9.00694 26.0914 11.4964 26.5866C13.9858 27.0818 16.5661 26.8276 18.9111 25.8563C21.2561 24.885 23.2604 23.2401 24.6706 21.1297C26.0807 19.0192 26.8334 16.538 26.8334 13.9998C26.8293 10.5975 25.476 7.33558 23.0701 4.92973C20.6643 2.52389 17.4024 1.17052 14 1.1665ZM14 24.4998C11.9233 24.4998 9.89325 23.884 8.16654 22.7303C6.43982 21.5765 5.09401 19.9366 4.29929 18.018C3.50457 16.0994 3.29664 13.9882 3.70178 11.9514C4.10693 9.91459 5.10695 8.04367 6.5754 6.57522C8.04386 5.10676 9.91478 4.10674 11.9516 3.70159C13.9884 3.29645 16.0996 3.50438 18.0182 4.2991C19.9368 5.09382 21.5767 6.43963 22.7305 8.16635C23.8842 9.89307 24.5 11.9231 24.5 13.9998C24.4969 16.7837 23.3897 19.4526 21.4212 21.421C19.4528 23.3895 16.7839 24.4968 14 24.4998ZM19.4915 10.158L10.1582 19.4913C10.0506 19.6028 9.92183 19.6916 9.7795 19.7528C9.63716 19.8139 9.48407 19.8461 9.32916 19.8475C9.17425 19.8488 9.02063 19.8193 8.87725 19.7606C8.73387 19.702 8.60361 19.6153 8.49406 19.5058C8.38452 19.3963 8.29789 19.266 8.23923 19.1226C8.18057 18.9792 8.15105 18.8256 8.1524 18.6707C8.15375 18.5158 8.18593 18.3627 8.24707 18.2204C8.30822 18.078 8.3971 17.9493 8.50853 17.8417L17.8419 8.50834C17.9495 8.39691 18.0782 8.30803 18.2206 8.24689C18.3629 8.18574 18.516 8.15356 18.6709 8.15221C18.8258 8.15087 18.9794 8.18038 19.1228 8.23905C19.2662 8.29771 19.3964 8.38434 19.506 8.49388C19.6155 8.60342 19.7022 8.73368 19.7608 8.87706C19.8195 9.02044 19.849 9.17406 19.8477 9.32897C19.8463 9.48388 19.8141 9.63697 19.753 9.77931C19.6918 9.92165 19.603 10.0504 19.4915 10.158ZM7.58336 9.9165C7.58336 9.45502 7.72021 9.00389 7.9766 8.62017C8.23299 8.23646 8.5974 7.93739 9.02376 7.76079C9.45012 7.58418 9.91928 7.53797 10.3719 7.62801C10.8245 7.71804 11.2403 7.94027 11.5666 8.26659C11.8929 8.59291 12.1152 9.00867 12.2052 9.46129C12.2952 9.91392 12.249 10.3831 12.0724 10.8094C11.8958 11.2358 11.5967 11.6002 11.213 11.8566C10.8293 12.113 10.3782 12.2498 9.91669 12.2498C9.29785 12.2498 8.70436 12.004 8.26678 11.5664C7.82919 11.1288 7.58336 10.5353 7.58336 9.9165ZM20.4167 18.0832C20.4167 18.5447 20.2798 18.9958 20.0235 19.3795C19.7671 19.7632 19.4026 20.0623 18.9763 20.2389C18.5499 20.4155 18.0808 20.4617 17.6281 20.3717C17.1755 20.2816 16.7598 20.0594 16.4334 19.7331C16.1071 19.4068 15.8849 18.991 15.7949 18.5384C15.7048 18.0858 15.751 17.6166 15.9276 17.1902C16.1042 16.7639 16.4033 16.3995 16.787 16.1431C17.1707 15.8867 17.6219 15.7498 18.0834 15.7498C18.7022 15.7498 19.2957 15.9957 19.7333 16.4333C20.1709 16.8708 20.4167 17.4643 20.4167 18.0832Z" fill="white"/>
</g>
</svg>
