<svg width="28" height="28" viewBox="0 0 28 28" fill="none" xmlns="http://www.w3.org/2000/svg">
<g id="interface/document-ui">
<path id="Vector" d="M24.5 6.99984C24.4988 6.69011 24.3755 6.39333 24.157 6.17384L19.4903 1.50718C19.3824 1.39934 19.2544 1.31373 19.1135 1.25518C18.9719 1.19619 18.82 1.16605 18.6667 1.16651H4.66667C4.35725 1.16651 4.0605 1.28943 3.84171 1.50822C3.62292 1.72701 3.5 2.02376 3.5 2.33318V25.6665C3.5 25.9759 3.62292 26.2727 3.84171 26.4915C4.0605 26.7103 4.35725 26.8332 4.66667 26.8332H23.3333C23.6428 26.8332 23.9395 26.7103 24.1583 26.4915C24.3771 26.2727 24.5 25.9759 24.5 25.6665V6.99984ZM22.1667 24.4998H5.83333V3.49984H17.5V6.99984C17.5 7.30926 17.6229 7.60601 17.8417 7.8248C18.0605 8.04359 18.3572 8.16651 18.6667 8.16651H22.1667V24.4998ZM18.6667 10.4998C18.9761 10.4998 19.2728 10.6228 19.4916 10.8416C19.7104 11.0603 19.8333 11.3571 19.8333 11.6665C19.8333 11.9759 19.7104 12.2727 19.4916 12.4915C19.2728 12.7103 18.9761 12.8332 18.6667 12.8332H9.33333C9.02391 12.8332 8.72717 12.7103 8.50838 12.4915C8.28958 12.2727 8.16667 11.9759 8.16667 11.6665C8.16667 11.3571 8.28958 11.0603 8.50838 10.8416C8.72717 10.6228 9.02391 10.4998 9.33333 10.4998H18.6667ZM8.16667 6.99984C8.16667 6.69042 8.28958 6.39368 8.50838 6.17488C8.72717 5.95609 9.02391 5.83318 9.33333 5.83318H14C14.3094 5.83318 14.6062 5.95609 14.825 6.17488C15.0437 6.39368 15.1667 6.69042 15.1667 6.99984C15.1667 7.30926 15.0437 7.60601 14.825 7.8248C14.6062 8.04359 14.3094 8.16651 14 8.16651H9.33333C9.02391 8.16651 8.72717 8.04359 8.50838 7.8248C8.28958 7.60601 8.16667 7.30926 8.16667 6.99984ZM19.8333 16.3332C19.8333 16.6426 19.7104 16.9393 19.4916 17.1581C19.2728 17.3769 18.9761 17.4998 18.6667 17.4998H9.33333C9.02391 17.4998 8.72717 17.3769 8.50838 17.1581C8.28958 16.9393 8.16667 16.6426 8.16667 16.3332C8.16667 16.0238 8.28958 15.727 8.50838 15.5082C8.72717 15.2894 9.02391 15.1665 9.33333 15.1665H18.6667C18.9761 15.1665 19.2728 15.2894 19.4916 15.5082C19.7104 15.727 19.8333 16.0238 19.8333 16.3332ZM19.8333 20.9998C19.8333 21.3093 19.7104 21.606 19.4916 21.8248C19.2728 22.0436 18.9761 22.1665 18.6667 22.1665H9.33333C9.02391 22.1665 8.72717 22.0436 8.50838 21.8248C8.28958 21.606 8.16667 21.3093 8.16667 20.9998C8.16667 20.6904 8.28958 20.3937 8.50838 20.1749C8.72717 19.9561 9.02391 19.8332 9.33333 19.8332H18.6667C18.9761 19.8332 19.2728 19.9561 19.4916 20.1749C19.7104 20.3937 19.8333 20.6904 19.8333 20.9998Z" fill="white"/>
</g>
</svg>
