<svg width="28" height="28" viewBox="0 0 28 28" fill="none" xmlns="http://www.w3.org/2000/svg">
<g id="Phone--filled">
<rect width="28" height="28" fill="white" style="mix-blend-mode:multiply"/>
<path id="Vector" d="M17.3396 18.2139L19.0624 16.491C19.2945 16.2618 19.5881 16.1049 19.9076 16.0394C20.2271 15.9739 20.5587 16.0025 20.8623 16.1218L22.962 16.9602C23.2688 17.0847 23.5318 17.2972 23.7179 17.5709C23.9041 17.8447 24.005 18.1674 24.0081 18.4985V22.3442C24.0063 22.5694 23.9589 22.7919 23.8689 22.9983C23.7789 23.2047 23.648 23.3908 23.4841 23.5453C23.3203 23.6998 23.1269 23.8195 22.9155 23.8973C22.7042 23.9751 22.4793 24.0093 22.2544 23.9979C7.54063 23.0826 4.57172 10.6224 4.01024 5.85368C3.98418 5.6195 4.00799 5.38246 4.08012 5.15814C4.15224 4.93383 4.27105 4.72733 4.42871 4.55223C4.58637 4.37713 4.77933 4.23739 4.99487 4.14222C5.21042 4.04704 5.44367 3.99859 5.67929 4.00003H9.39427C9.72578 4.00101 10.0494 4.10115 10.3236 4.28756C10.5977 4.47397 10.8098 4.73814 10.9326 5.04607L11.7709 7.14584C11.8942 7.44817 11.9256 7.78011 11.8613 8.10021C11.7971 8.4203 11.6399 8.71436 11.4094 8.94565L9.68655 10.6685C9.68655 10.6685 10.6787 17.3832 17.3396 18.2139Z" fill="white"/>
</g>
</svg>
