<svg width="32" height="32" viewBox="0 0 32 32" fill="none" xmlns="http://www.w3.org/2000/svg">
<g filter="url(#filter0_d_3307_1236)">
<rect x="4" y="4" width="24" height="24" rx="12" fill="#099B87"/>
<path d="M19.8427 9.33302C19.4717 9.33185 19.1043 9.40438 18.7616 9.5464C18.419 9.68843 18.108 9.89712 17.8467 10.1604L10.1033 17.903C10.004 18.0025 9.93867 18.1308 9.91666 18.2697L9.34133 21.895C9.32474 21.999 9.33303 22.1055 9.36553 22.2057C9.39802 22.3059 9.45379 22.3969 9.52827 22.4714C9.60275 22.5459 9.69381 22.6017 9.794 22.6342C9.89419 22.6666 10.0006 22.6749 10.1047 22.6584L13.7333 22.083C13.8722 22.061 14.0005 21.9957 14.1 21.8964L21.8393 14.153C22.2342 13.7578 22.5029 13.2544 22.6116 12.7065C22.7203 12.1586 22.664 11.5907 22.45 11.0747C22.2359 10.5587 21.8735 10.1179 21.4089 9.80784C20.9442 9.49781 20.3979 9.33257 19.8393 9.33302H19.8427ZM13.3067 20.7997L10.8 21.1997L11.2 18.695L16.7933 13.101L18.9013 15.209L13.3067 20.7997ZM20.8967 13.2104L19.8433 14.2664L17.7333 12.1564L18.7873 11.103C19.0712 10.8321 19.4486 10.6809 19.841 10.6809C20.2334 10.6809 20.6108 10.8321 20.8947 11.103C21.0331 11.2413 21.143 11.4056 21.2179 11.5864C21.2928 11.7672 21.3314 11.961 21.3314 12.1567C21.3314 12.3524 21.2928 12.5462 21.2179 12.727C21.143 12.9078 21.0331 13.072 20.8947 13.2104H20.8967Z" fill="white"/>
</g>
<defs>
<filter id="filter0_d_3307_1236" x="0" y="0" width="32" height="32" filterUnits="userSpaceOnUse" color-interpolation-filters="sRGB">
<feFlood flood-opacity="0" result="BackgroundImageFix"/>
<feColorMatrix in="SourceAlpha" type="matrix" values="0 0 0 0 0 0 0 0 0 0 0 0 0 0 0 0 0 0 127 0" result="hardAlpha"/>
<feOffset/>
<feGaussianBlur stdDeviation="2"/>
<feComposite in2="hardAlpha" operator="out"/>
<feColorMatrix type="matrix" values="0 0 0 0 0 0 0 0 0 0 0 0 0 0 0 0 0 0 0.25 0"/>
<feBlend mode="normal" in2="BackgroundImageFix" result="effect1_dropShadow_3307_1236"/>
<feBlend mode="normal" in="SourceGraphic" in2="effect1_dropShadow_3307_1236" result="shape"/>
</filter>
</defs>
</svg>
