<svg width="24" height="24" viewBox="0 0 24 24" fill="none" xmlns="http://www.w3.org/2000/svg">
<g id="accessibility/couple">
<path id="Vector" d="M19.5 3.5V6H14.5V3.5C14.5 2.83696 14.7634 2.20107 15.2322 1.73223C15.7011 1.26339 16.3369 1 17 1C17.663 1 18.2989 1.26339 18.7677 1.73223C19.2366 2.20107 19.5 2.83696 19.5 3.5ZM22.948 13.684C22.9895 13.8088 23.006 13.9405 22.9966 14.0716C22.9872 14.2027 22.9521 14.3307 22.8932 14.4483C22.8343 14.5659 22.7529 14.6707 22.6535 14.7568C22.5541 14.8428 22.4387 14.9085 22.314 14.95C22.1892 14.9915 22.0575 15.008 21.9264 14.9986C21.7952 14.9892 21.6672 14.9541 21.5497 14.8952C21.4321 14.8363 21.3273 14.7549 21.2412 14.6555C21.1551 14.5561 21.0895 14.4408 21.048 14.316L20 11.162V22C20 22.2652 19.8946 22.5196 19.7071 22.7071C19.5196 22.8946 19.2652 23 19 23C18.7348 23 18.4804 22.8946 18.2929 22.7071C18.1053 22.5196 18 22.2652 18 22V16H16V22C16 22.2652 15.8946 22.5196 15.7071 22.7071C15.5196 22.8946 15.2652 23 15 23C14.7348 23 14.4804 22.8946 14.2929 22.7071C14.1053 22.5196 14 22.2652 14 22V11.162L12.949 14.316C12.8832 14.5161 12.756 14.6903 12.5854 14.8138C12.4148 14.9373 12.2096 15.0037 11.999 15.0037C11.7884 15.0037 11.5832 14.9373 11.4126 14.8138C11.242 14.6903 11.1147 14.5161 11.049 14.316L9.99998 11.162V22C9.99998 22.2652 9.89462 22.5196 9.70709 22.7071C9.51955 22.8946 9.2652 23 8.99998 23C8.73476 23 8.48041 22.8946 8.29287 22.7071C8.10534 22.5196 7.99998 22.2652 7.99998 22V16H5.99998V22C5.99998 22.2652 5.89462 22.5196 5.70709 22.7071C5.51955 22.8946 5.2652 23 4.99998 23C4.73476 23 4.48041 22.8946 4.29287 22.7071C4.10534 22.5196 3.99998 22.2652 3.99998 22V11.162L2.94898 14.316C2.86517 14.568 2.68471 14.7763 2.44729 14.8952C2.20987 15.0141 1.93494 15.0338 1.68298 14.95C1.43103 14.8662 1.22268 14.6857 1.10378 14.4483C0.984886 14.2109 0.965173 13.936 1.04898 13.684L3.04898 7.684C3.11544 7.48447 3.24311 7.31097 3.41384 7.18817C3.58457 7.06537 3.78967 6.99953 3.99998 7H9.99998C10.2099 6.99995 10.4146 7.06599 10.5849 7.18876C10.7553 7.31153 10.8826 7.48479 10.949 7.684L12 10.838L13.052 7.684C13.1183 7.48496 13.2455 7.3118 13.4156 7.18905C13.5858 7.0663 13.7902 7.00016 14 7H20C20.2098 7.00016 20.4142 7.0663 20.5843 7.18905C20.7545 7.3118 20.8817 7.48496 20.948 7.684L22.948 13.684ZM7.99998 9H5.99998V14H7.99998V9ZM18 9H16V14H18V9ZM6.99998 1C6.50553 1 6.02218 1.14662 5.61106 1.42133C5.19993 1.69603 4.8795 2.08648 4.69028 2.54329C4.50106 3.00011 4.45155 3.50277 4.54802 3.98773C4.64448 4.47268 4.88258 4.91814 5.23221 5.26777C5.58185 5.6174 6.0273 5.8555 6.51226 5.95196C6.99721 6.04843 7.49987 5.99892 7.95669 5.8097C8.4135 5.62048 8.80395 5.30005 9.07866 4.88893C9.35336 4.4778 9.49998 3.99445 9.49998 3.5C9.49998 2.83696 9.23659 2.20107 8.76775 1.73223C8.29891 1.26339 7.66302 1 6.99998 1Z" fill="none"/>
</g>
</svg>
