<svg width="164" height="164" viewBox="0 0 164 164" fill="none" xmlns="http://www.w3.org/2000/svg">
<path d="M81.6514 99.3538C105.098 99.3538 125.118 103.071 125.118 117.945C125.118 132.814 105.226 136.666 81.6514 136.666C58.205 136.666 38.1849 132.949 38.1849 118.081C38.1849 103.206 58.0765 99.3538 81.6514 99.3538ZM119.139 90.397C128.103 90.2308 137.74 91.4617 141.301 92.3356C148.845 93.8187 153.807 96.8465 155.863 101.247C157.601 104.859 157.601 109.05 155.863 112.657C152.718 119.482 142.58 121.672 138.639 122.239C137.826 122.362 137.171 121.654 137.256 120.835C139.269 101.924 123.257 92.9571 119.115 90.8955C118.937 90.8032 118.901 90.6616 118.919 90.5755C118.931 90.5139 119.005 90.4155 119.139 90.397ZM44.8646 90.3995C44.9992 90.4179 45.0665 90.5164 45.0788 90.5718C45.0971 90.6641 45.0604 90.7995 44.8891 90.898C40.7407 92.9596 24.7283 101.926 26.7414 120.832C26.827 121.656 26.1784 122.358 25.3647 122.241C21.4243 121.675 11.2858 119.484 8.14086 112.659C6.39706 109.047 6.39706 104.862 8.14086 101.249C10.1967 96.849 15.1528 93.8212 22.697 92.3319C26.2641 91.4641 35.8948 90.2333 44.8646 90.3995ZM81.6514 27.333C97.6148 27.333 110.415 40.1952 110.415 56.2575C110.415 72.3137 97.6148 85.1881 81.6514 85.1881C65.688 85.1881 52.8879 72.3137 52.8879 56.2575C52.8879 40.1952 65.688 27.333 81.6514 27.333ZM120.7 32.1566C136.118 32.1566 148.227 46.7481 144.103 63.0012C141.319 73.9433 131.242 81.2113 120.014 80.9159C118.888 80.8852 117.781 80.7805 116.71 80.5959C115.933 80.4605 115.542 79.5805 115.982 78.9281C120.265 72.5894 122.706 64.9644 122.706 56.7794C122.706 48.2374 120.039 40.2739 115.407 33.7444C115.26 33.5413 115.15 33.2274 115.297 32.9936C115.419 32.8028 115.646 32.7043 115.86 32.6551C117.42 32.3351 119.023 32.1566 120.7 32.1566ZM43.2952 32.156C44.9717 32.156 46.5748 32.3345 48.1411 32.6545C48.3491 32.7037 48.5816 32.8084 48.704 32.993C48.8447 33.2268 48.7407 33.5407 48.5939 33.7438C43.9621 40.2733 41.2944 48.2368 41.2944 56.7788C41.2944 64.9638 43.7357 72.5888 48.0187 78.9275C48.4593 79.5799 48.0677 80.4599 47.2906 80.5953C46.2138 80.7861 45.1124 80.8845 43.9866 80.9153C32.759 81.2107 22.6817 73.9427 19.8977 63.0006C15.7677 46.7475 27.8764 32.156 43.2952 32.156Z" fill="#F2F2F2"/>
</svg>
