<svg width="24" height="24" viewBox="0 0 24 24" fill="none" xmlns="http://www.w3.org/2000/svg">
<g id="interface/logout-bracket">
<path id="Vector" d="M7.70703 8.707L5.41403 11H17C17.2652 11 17.5196 11.1054 17.7071 11.2929C17.8947 11.4804 18 11.7348 18 12C18 12.2652 17.8947 12.5196 17.7071 12.7071C17.5196 12.8946 17.2652 13 17 13H5.41403L7.70703 15.293C7.80254 15.3852 7.87872 15.4956 7.93113 15.6176C7.98354 15.7396 8.01113 15.8708 8.01228 16.0036C8.01344 16.1364 7.98813 16.2681 7.93785 16.391C7.88757 16.5138 7.81332 16.6255 7.71943 16.7194C7.62553 16.8133 7.51388 16.8875 7.39098 16.9378C7.26809 16.9881 7.13641 17.0134 7.00363 17.0123C6.87085 17.0111 6.73963 16.9835 6.61763 16.9311C6.49562 16.8787 6.38528 16.8025 6.29303 16.707L2.29303 12.707C2.10556 12.5195 2.00024 12.2652 2.00024 12C2.00024 11.7348 2.10556 11.4805 2.29303 11.293L6.29303 7.293C6.38528 7.19749 6.49562 7.12131 6.61763 7.0689C6.73963 7.01649 6.87085 6.9889 7.00363 6.98775C7.13641 6.9866 7.26809 7.0119 7.39098 7.06218C7.51388 7.11246 7.62553 7.18671 7.71943 7.2806C7.81332 7.3745 7.88757 7.48615 7.93785 7.60905C7.98813 7.73194 8.01344 7.86362 8.01228 7.9964C8.01113 8.12918 7.98354 8.2604 7.93113 8.3824C7.87872 8.50441 7.80254 8.61475 7.70703 8.707ZM21 1H13C12.7348 1 12.4805 1.10536 12.2929 1.29289C12.1054 1.48043 12 1.73478 12 2C12 2.26522 12.1054 2.51957 12.2929 2.70711C12.4805 2.89464 12.7348 3 13 3H20V21H13C12.7348 21 12.4805 21.1054 12.2929 21.2929C12.1054 21.4804 12 21.7348 12 22C12 22.2652 12.1054 22.5196 12.2929 22.7071C12.4805 22.8946 12.7348 23 13 23H21C21.2652 23 21.5196 22.8946 21.7071 22.7071C21.8947 22.5196 22 22.2652 22 22V2C22 1.73478 21.8947 1.48043 21.7071 1.29289C21.5196 1.10536 21.2652 1 21 1Z" fill="none"/>
</g>
</svg>
