<svg width="24" height="24" viewBox="0 0 24 24" fill="none" xmlns="http://www.w3.org/2000/svg">
<g id="development/more-v">
<path id="Vector" d="M10 4C10 3.60444 10.1173 3.21776 10.3371 2.88886C10.5568 2.55996 10.8692 2.30362 11.2346 2.15224C11.6001 2.00087 12.0022 1.96126 12.3902 2.03843C12.7781 2.1156 13.1345 2.30608 13.4142 2.58579C13.6939 2.86549 13.8844 3.22186 13.9616 3.60982C14.0387 3.99778 13.9991 4.39992 13.8478 4.76537C13.6964 5.13082 13.44 5.44318 13.1111 5.66294C12.7822 5.8827 12.3956 6 12 6C11.4696 6 10.9609 5.78929 10.5858 5.41421C10.2107 5.03914 10 4.53043 10 4ZM12 14C12.3956 14 12.7822 13.8827 13.1111 13.6629C13.44 13.4432 13.6964 13.1308 13.8478 12.7654C13.9991 12.3999 14.0387 11.9978 13.9616 11.6098C13.8844 11.2219 13.6939 10.8655 13.4142 10.5858C13.1345 10.3061 12.7781 10.1156 12.3902 10.0384C12.0022 9.96126 11.6001 10.0009 11.2346 10.1522C10.8692 10.3036 10.5568 10.56 10.3371 10.8889C10.1173 11.2178 10 11.6044 10 12C10 12.5304 10.2107 13.0391 10.5858 13.4142C10.9609 13.7893 11.4696 14 12 14ZM12 22C12.3956 22 12.7822 21.8827 13.1111 21.6629C13.44 21.4432 13.6964 21.1308 13.8478 20.7654C13.9991 20.3999 14.0387 19.9978 13.9616 19.6098C13.8844 19.2219 13.6939 18.8655 13.4142 18.5858C13.1345 18.3061 12.7781 18.1156 12.3902 18.0384C12.0022 17.9613 11.6001 18.0009 11.2346 18.1522C10.8692 18.3036 10.5568 18.56 10.3371 18.8889C10.1173 19.2178 10 19.6044 10 20C10 20.5304 10.2107 21.0391 10.5858 21.4142C10.9609 21.7893 11.4696 22 12 22Z" fill="black"/>
</g>
</svg>
