<svg width="24" height="24" viewBox="0 0 24 24" fill="none" xmlns="http://www.w3.org/2000/svg">
<g id="text/bulleted-list-2">
<path id="Vector" d="M4 7C4.59334 7 5.17336 6.82405 5.66671 6.49441C6.16006 6.16477 6.54458 5.69623 6.77164 5.14805C6.9987 4.59987 7.05811 3.99667 6.94236 3.41473C6.8266 2.83279 6.54088 2.29824 6.12132 1.87868C5.70176 1.45912 5.16721 1.1734 4.58527 1.05765C4.00333 0.94189 3.40013 1.0013 2.85195 1.22836C2.30377 1.45543 1.83524 1.83994 1.50559 2.33329C1.17595 2.82664 1 3.40666 1 4C1 4.79565 1.31607 5.55871 1.87868 6.12132C2.44129 6.68393 3.20435 7 4 7ZM4 3C4.19778 3 4.39112 3.05865 4.55557 3.16853C4.72002 3.27841 4.84819 3.43459 4.92388 3.61732C4.99957 3.80004 5.01937 4.00111 4.98079 4.19509C4.9422 4.38907 4.84696 4.56726 4.70711 4.70711C4.56725 4.84696 4.38907 4.9422 4.19509 4.98079C4.00111 5.01937 3.80004 4.99957 3.61732 4.92388C3.43459 4.84819 3.27841 4.72002 3.16853 4.55557C3.05865 4.39112 3 4.19778 3 4C3 3.73478 3.10536 3.48043 3.29289 3.29289C3.48043 3.10536 3.73478 3 4 3ZM4 15C4.59334 15 5.17336 14.8241 5.66671 14.4944C6.16006 14.1648 6.54458 13.6962 6.77164 13.1481C6.9987 12.5999 7.05811 11.9967 6.94236 11.4147C6.8266 10.8328 6.54088 10.2982 6.12132 9.87868C5.70176 9.45912 5.16721 9.1734 4.58527 9.05764C4.00333 8.94189 3.40013 9.0013 2.85195 9.22836C2.30377 9.45543 1.83524 9.83994 1.50559 10.3333C1.17595 10.8266 1 11.4067 1 12C1 12.7957 1.31607 13.5587 1.87868 14.1213C2.44129 14.6839 3.20435 15 4 15ZM4 11C4.19778 11 4.39112 11.0587 4.55557 11.1685C4.72002 11.2784 4.84819 11.4346 4.92388 11.6173C4.99957 11.8 5.01937 12.0011 4.98079 12.1951C4.9422 12.3891 4.84696 12.5673 4.70711 12.7071C4.56725 12.847 4.38907 12.9422 4.19509 12.9808C4.00111 13.0194 3.80004 12.9996 3.61732 12.9239C3.43459 12.8482 3.27841 12.72 3.16853 12.5556C3.05865 12.3911 3 12.1978 3 12C3 11.7348 3.10536 11.4804 3.29289 11.2929C3.48043 11.1054 3.73478 11 4 11ZM4 23C4.59334 23 5.17336 22.8241 5.66671 22.4944C6.16006 22.1648 6.54458 21.6962 6.77164 21.1481C6.9987 20.5999 7.05811 19.9967 6.94236 19.4147C6.8266 18.8328 6.54088 18.2982 6.12132 17.8787C5.70176 17.4591 5.16721 17.1734 4.58527 17.0576C4.00333 16.9419 3.40013 17.0013 2.85195 17.2284C2.30377 17.4554 1.83524 17.8399 1.50559 18.3333C1.17595 18.8266 1 19.4067 1 20C1 20.7957 1.31607 21.5587 1.87868 22.1213C2.44129 22.6839 3.20435 23 4 23ZM4 19C4.19778 19 4.39112 19.0586 4.55557 19.1685C4.72002 19.2784 4.84819 19.4346 4.92388 19.6173C4.99957 19.8 5.01937 20.0011 4.98079 20.1951C4.9422 20.3891 4.84696 20.5673 4.70711 20.7071C4.56725 20.847 4.38907 20.9422 4.19509 20.9808C4.00111 21.0194 3.80004 20.9996 3.61732 20.9239C3.43459 20.8482 3.27841 20.72 3.16853 20.5556C3.05865 20.3911 3 20.1978 3 20C3 19.7348 3.10536 19.4804 3.29289 19.2929C3.48043 19.1054 3.73478 19 4 19ZM23 4C23 4.26522 22.8946 4.51957 22.7071 4.70711C22.5196 4.89464 22.2652 5 22 5H10C9.73478 5 9.48043 4.89464 9.29289 4.70711C9.10536 4.51957 9 4.26522 9 4C9 3.73478 9.10536 3.48043 9.29289 3.29289C9.48043 3.10536 9.73478 3 10 3H22C22.2652 3 22.5196 3.10536 22.7071 3.29289C22.8946 3.48043 23 3.73478 23 4ZM23 12C23 12.2652 22.8946 12.5196 22.7071 12.7071C22.5196 12.8946 22.2652 13 22 13H10C9.73478 13 9.48043 12.8946 9.29289 12.7071C9.10536 12.5196 9 12.2652 9 12C9 11.7348 9.10536 11.4804 9.29289 11.2929C9.48043 11.1054 9.73478 11 10 11H22C22.2652 11 22.5196 11.1054 22.7071 11.2929C22.8946 11.4804 23 11.7348 23 12ZM23 20C23 20.2652 22.8946 20.5196 22.7071 20.7071C22.5196 20.8946 22.2652 21 22 21H10C9.73478 21 9.48043 20.8946 9.29289 20.7071C9.10536 20.5196 9 20.2652 9 20C9 19.7348 9.10536 19.4804 9.29289 19.2929C9.48043 19.1054 9.73478 19 10 19H22C22.2652 19 22.5196 19.1054 22.7071 19.2929C22.8946 19.4804 23 19.7348 23 20Z" fill="none"/>
</g>
</svg>
