<svg width="14" height="14" viewBox="0 0 14 14" fill="none" xmlns="http://www.w3.org/2000/svg">
<g id="interface/clock" clip-path="url(#clip0_1794_8182)">
<path id="Vector" d="M6.99998 0.583496C5.73089 0.583496 4.49029 0.959827 3.43507 1.6649C2.37986 2.36997 1.55742 3.37212 1.07176 4.54461C0.586093 5.7171 0.459022 7.00728 0.70661 8.25199C0.954199 9.4967 1.56533 10.64 2.46271 11.5374C3.3601 12.4348 4.50344 13.0459 5.74815 13.2935C6.99286 13.5411 8.28304 13.4141 9.45553 12.9284C10.628 12.4427 11.6302 11.6203 12.3352 10.5651C13.0403 9.50986 13.4166 8.26926 13.4166 7.00016C13.4146 5.29897 12.738 3.66803 11.535 2.46511C10.3321 1.26219 8.70117 0.585503 6.99998 0.583496ZM6.99998 12.2502C5.96163 12.2502 4.9466 11.9423 4.08324 11.3654C3.21988 10.7885 2.54698 9.96856 2.14961 9.00925C1.75225 8.04994 1.64829 6.99434 1.85086 5.97594C2.05343 4.95754 2.55345 4.02208 3.28767 3.28785C4.0219 2.55363 4.95736 2.05361 5.97576 1.85104C6.99416 1.64847 8.04976 1.75244 9.00907 2.1498C9.96838 2.54716 10.7883 3.22006 11.3652 4.08342C11.9421 4.94678 12.25 5.96181 12.25 7.00016C12.2484 8.39208 11.6948 9.72654 10.7106 10.7108C9.72636 11.695 8.39189 12.2486 6.99998 12.2502ZM10.5 7.00016C10.5 7.15487 10.4385 7.30325 10.3291 7.41264C10.2197 7.52204 10.0714 7.5835 9.91665 7.5835H6.99998C6.84527 7.5835 6.6969 7.52204 6.5875 7.41264C6.47811 7.30325 6.41665 7.15487 6.41665 7.00016V3.50016C6.41665 3.34545 6.47811 3.19708 6.5875 3.08768C6.6969 2.97829 6.84527 2.91683 6.99998 2.91683C7.15469 2.91683 7.30306 2.97829 7.41246 3.08768C7.52186 3.19708 7.58332 3.34545 7.58332 3.50016V6.41683H9.91665C10.0714 6.41683 10.2197 6.47829 10.3291 6.58768C10.4385 6.69708 10.5 6.84545 10.5 7.00016Z" fill="#004D5E"/>
</g>
<defs>
<clipPath id="clip0_1794_8182">
<rect width="14" height="14" fill="white"/>
</clipPath>
</defs>
</svg>
