<svg width="14" height="14" viewBox="0 0 14 14" fill="none" xmlns="http://www.w3.org/2000/svg">
<g id="interface/email">
<path id="Vector" d="M12.8333 1.75H1.16665C1.01194 1.75 0.863564 1.81146 0.754167 1.92085C0.644771 2.03025 0.583313 2.17862 0.583313 2.33333V11.6667C0.583313 11.8214 0.644771 11.9697 0.754167 12.0791C0.863564 12.1885 1.01194 12.25 1.16665 12.25H12.8333C12.988 12.25 13.1364 12.1885 13.2458 12.0791C13.3552 11.9697 13.4166 11.8214 13.4166 11.6667V2.33333C13.4166 2.17862 13.3552 2.03025 13.2458 1.92085C13.1364 1.81146 12.988 1.75 12.8333 1.75ZM12.25 11.0833H1.74998V5.52825L6.78298 7.54192C6.92238 7.59714 7.07758 7.59714 7.21698 7.54192L12.25 5.52825V11.0833ZM12.25 4.27175L6.99998 6.37175L1.74998 4.27175V2.91667H12.25V4.27175Z" fill="#004D5E"/>
</g>
</svg>
