<svg width="16" height="16" viewBox="0 0 16 16" fill="none" xmlns="http://www.w3.org/2000/svg">
<g id="interface/gps">
<path id="Vector" d="M13.62 6.73742C13.622 5.99948 13.4786 5.26837 13.198 4.58584C12.9174 3.90331 12.5051 3.28273 11.9847 2.75953C10.9337 1.70288 9.50596 1.10703 8.01561 1.10305C6.52526 1.09907 5.09437 1.68729 4.03772 2.73832C2.98107 3.78934 2.38521 5.21707 2.38123 6.70742C2.36804 8.43881 2.87065 10.1349 3.82501 11.5796C4.77937 13.0243 6.14226 14.1521 7.73998 14.8193C7.82166 14.8563 7.91033 14.8752 7.99998 14.8749C8.09029 14.8751 8.17958 14.8559 8.26186 14.8187C9.85472 14.1535 11.2142 13.0304 12.1681 11.5917C13.122 10.1531 13.6273 8.46358 13.62 6.73742ZM7.99998 13.5624C6.68245 12.9824 5.56517 12.0267 4.7879 10.815C4.01063 9.60331 3.60787 8.18933 3.62998 6.74992C3.62998 6.17605 3.74302 5.60779 3.96263 5.0776C4.18224 4.5474 4.50414 4.06566 4.90993 3.65987C5.31572 3.25407 5.79747 2.93218 6.32766 2.71257C6.85785 2.49296 7.42611 2.37992 7.99998 2.37992C8.57386 2.37992 9.14212 2.49296 9.67231 2.71257C10.2025 2.93218 10.6842 3.25407 11.09 3.65987C11.4958 4.06566 11.8177 4.5474 12.0373 5.0776C12.257 5.60779 12.37 6.17605 12.37 6.74992C12.37 6.76305 12.37 6.77805 12.37 6.79055C12.3851 8.2233 11.979 9.62894 11.2021 10.8329C10.4252 12.0368 9.31173 12.9859 7.99998 13.5624ZM7.99998 4.24992C7.50553 4.24992 7.02218 4.39654 6.61106 4.67125C6.19994 4.94595 5.8795 5.3364 5.69029 5.79321C5.50107 6.25003 5.45156 6.7527 5.54802 7.23765C5.64448 7.7226 5.88259 8.16806 6.23222 8.51769C6.58185 8.86732 7.02731 9.10542 7.51226 9.20189C7.99721 9.29835 8.49988 9.24884 8.95669 9.05962C9.41351 8.8704 9.80396 8.54997 10.0787 8.13885C10.3534 7.72773 10.5 7.24438 10.5 6.74992C10.5 6.08688 10.2366 5.451 9.76775 4.98216C9.29891 4.51331 8.66303 4.24992 7.99998 4.24992ZM7.99998 7.99992C7.75276 7.99992 7.51108 7.92661 7.30552 7.78926C7.09996 7.65191 6.93974 7.45668 6.84514 7.22828C6.75053 6.99987 6.72577 6.74854 6.774 6.50606C6.82223 6.26358 6.94129 6.04085 7.1161 5.86604C7.29092 5.69122 7.51365 5.57217 7.75612 5.52394C7.9986 5.47571 8.24993 5.50046 8.47834 5.59507C8.70675 5.68968 8.90197 5.8499 9.03932 6.05546C9.17667 6.26102 9.24998 6.5027 9.24998 6.74992C9.24998 7.08144 9.11829 7.39939 8.88387 7.63381C8.64945 7.86823 8.33151 7.99992 7.99998 7.99992Z" fill="#00473E"/>
</g>
</svg>
