<svg width="14" height="14" viewBox="0 0 14 14" fill="none" xmlns="http://www.w3.org/2000/svg">
<g id="interface/phone" clip-path="url(#clip0_1794_8177)">
<path id="Vector" d="M0.744896 5.16701C1.52015 8.24701 5.7534 12.4832 8.83281 13.2549C9.24852 13.3603 9.67563 13.414 10.1045 13.4148C10.9194 13.4144 11.7218 13.2141 12.4413 12.8314C12.6934 12.6997 12.911 12.5106 13.0766 12.2794C13.2421 12.0481 13.351 11.7812 13.3944 11.5001C13.4377 11.219 13.4144 10.9316 13.3263 10.6612C13.2381 10.3908 13.0877 10.1449 12.887 9.94334L11.6701 8.72651C11.4122 8.46867 11.0826 8.29452 10.7242 8.22678C10.3659 8.15905 9.9954 8.20085 9.66115 8.34676C9.34226 8.48447 9.05139 8.67963 8.80306 8.92251C8.69923 9.02576 8.5079 9.04209 8.23315 8.96742C7.51285 8.67469 6.85849 8.24066 6.30866 7.69093C5.75883 7.1412 5.32468 6.48691 5.03181 5.76667C4.95831 5.49192 4.97348 5.30001 5.07731 5.19676C5.32046 4.94809 5.51582 4.65683 5.65365 4.33751C5.79921 4.00339 5.84084 3.63319 5.77311 3.27509C5.70538 2.91698 5.53143 2.58756 5.2739 2.32968L4.05706 1.11343C3.85782 0.911742 3.61348 0.760329 3.34419 0.671682C3.0749 0.583036 2.7884 0.559697 2.50831 0.603592C2.22505 0.64519 1.95572 0.753449 1.72247 0.919462C1.48922 1.08547 1.29872 1.3045 1.16665 1.55851C0.579055 2.66606 0.428547 3.95381 0.744896 5.16701ZM2.2009 2.09984C2.24851 2.00869 2.31706 1.93013 2.40092 1.87061C2.48478 1.81109 2.58156 1.7723 2.68331 1.75743C2.71553 1.75229 2.74811 1.74976 2.78073 1.74984C2.86471 1.74981 2.94786 1.76645 3.02536 1.7988C3.10287 1.83114 3.17318 1.87854 3.23223 1.93826L4.44848 3.15451C4.53994 3.2449 4.60214 3.36069 4.627 3.48686C4.65186 3.61303 4.63824 3.74376 4.5879 3.86209C4.50823 4.052 4.39456 4.22577 4.25248 4.37484C4.04383 4.59713 3.90114 4.87309 3.84036 5.17184C3.77958 5.47059 3.8031 5.78036 3.90831 6.06651C4.32948 7.64151 6.36123 9.67092 7.93331 10.0915C8.22057 10.1965 8.53141 10.2194 8.83094 10.1576C9.13048 10.0957 9.40686 9.95167 9.62906 9.74151C9.77727 9.59957 9.95002 9.48573 10.1389 9.40551C10.2573 9.35504 10.3881 9.34135 10.5144 9.36621C10.6407 9.39107 10.7566 9.45334 10.8471 9.54493L12.0633 10.7612C12.1348 10.8319 12.1885 10.9186 12.2199 11.0141C12.2513 11.1097 12.2597 11.2113 12.2441 11.3107C12.229 11.4126 12.1898 11.5094 12.1299 11.5932C12.0699 11.6769 11.9909 11.7453 11.8994 11.7925C11.0476 12.2503 10.0535 12.3662 9.11923 12.1168C6.46856 11.4571 2.54331 7.53184 1.87598 4.88234C1.62691 3.94724 1.74308 2.9524 2.2009 2.09984Z" fill="#004D5E"/>
</g>
<defs>
<clipPath id="clip0_1794_8177">
<rect width="14" height="14" fill="white"/>
</clipPath>
</defs>
</svg>
