<svg width="20" height="18" viewBox="0 0 20 18" fill="none" xmlns="http://www.w3.org/2000/svg">
<g id="Group 9463">
<g id="Nm4DFV.tif">
<g id="Group">
<path id="Vector" d="M17.9521 16.4116C17.9699 17.0954 17.5703 17.6973 16.962 17.8947C16.891 17.9187 16.8244 17.9428 16.7533 17.9717H16.3981C16.1406 17.8273 15.8432 17.7261 15.63 17.5287C15.155 17.0857 15.0662 16.3394 15.3681 15.752C15.6656 15.1597 16.2916 14.8564 16.8954 15.0153C17.4948 15.1645 17.9343 15.7424 17.9521 16.4116Z" fill="#747474"/>
<path id="Vector_2" d="M7.80154 16.5024C7.78378 17.1477 7.38864 17.7062 6.8159 17.894C6.74042 17.9181 6.6605 17.9469 6.58502 17.971H6.27423C5.88797 17.8651 5.53722 17.6966 5.29747 17.321C4.9556 16.7817 4.96004 16.0835 5.31967 15.5683C5.68373 15.0483 6.30087 14.8412 6.86473 15.0483C7.43304 15.2602 7.8193 15.8572 7.80154 16.5024Z" fill="#747474"/>
</g>
</g>
<path id="Vector_3" d="M19.2777 3.33682C18.6117 3.31275 17.9413 3.30793 17.2754 3.32238H5.47866C5.23447 2.46049 4.99472 1.59859 4.75053 0.741516C4.59957 0.202231 4.3465 0.00481504 3.8226 0C3.39193 0 2.96571 0 2.53504 0C1.98006 0 1.42508 0 0.870097 0C0.541548 0 0.275157 0.130006 0.106443 0.438169C-0.191027 0.991898 0.1686 1.68526 0.77686 1.69971C1.56271 1.71415 2.34413 1.70934 3.12998 1.69971C3.31646 1.69971 3.39637 1.75267 3.44965 1.95009C4.38646 5.28691 5.32771 8.62374 6.26896 11.9606C6.45099 12.601 6.6641 12.7791 7.2768 12.7791C10.1938 12.7791 13.1108 12.7791 16.0233 12.7791C16.5827 12.7791 16.7914 12.6298 17.009 12.0761C17.7859 10.0779 18.5585 8.08445 19.3354 6.08621C19.5352 5.56619 19.7483 5.05579 19.9348 4.53095C20.1435 3.94352 19.8327 3.35608 19.2777 3.33682ZM17.968 5.20987C17.2354 7.10218 16.4984 8.99449 15.7702 10.8916C15.7081 11.0505 15.6237 11.0794 15.4817 11.0746C12.9598 11.0698 10.4335 11.0698 7.9117 11.0746C7.72079 11.0746 7.64531 11.012 7.59203 10.8146C7.05037 8.87893 6.50427 6.94329 5.95817 5.00764H16.5916C16.636 5.01727 16.6804 5.01727 16.7292 5.01727C17.151 5.0269 17.5684 5.01727 18.0212 5.01727C17.9946 5.11839 17.9857 5.16654 17.968 5.20987Z" fill="#747474"/>
</g>
</svg>
