<svg width="24" height="24" viewBox="0 0 24 24" fill="none" xmlns="http://www.w3.org/2000/svg">
<g id="_icon / chevron.down">
<path id="Vector" d="M12.264 13.6981L17.7495 8.21261C17.8493 8.10297 17.9701 8.01449 18.1048 7.95238C18.2394 7.89028 18.3852 7.85582 18.5334 7.85104C18.6816 7.84626 18.8292 7.87127 18.9676 7.92457C19.1059 7.97788 19.2322 8.0584 19.3389 8.16138C19.4456 8.26435 19.5305 8.38769 19.5887 8.52408C19.6469 8.66046 19.6771 8.80714 19.6776 8.95542C19.678 9.10369 19.6488 9.25056 19.5915 9.38732C19.5342 9.52408 19.45 9.64795 19.344 9.75161L19.317 9.77861L13.0485 16.0486C12.8406 16.2564 12.5587 16.3732 12.2647 16.3732C11.9708 16.3732 11.6889 16.2564 11.481 16.0486L5.21248 9.78011C5.10778 9.67895 5.02404 9.55817 4.96602 9.42466C4.908 9.29114 4.87685 9.1475 4.87434 9.00195C4.87183 8.85639 4.89802 8.71177 4.95141 8.57633C5.00479 8.4409 5.08433 8.3173 5.18548 8.21261C5.28663 8.10791 5.40741 8.02416 5.54093 7.96614C5.67445 7.90812 5.81808 7.87697 5.96364 7.87447C6.10919 7.87196 6.25382 7.89815 6.38925 7.95153C6.52469 8.00492 6.64828 8.08445 6.75298 8.18561L6.77998 8.21261L12.264 13.6981Z" fill="#099B87" stroke="#099B87" stroke-width="0.5"/>
</g>
</svg>
