<svg width="500" height="175" viewBox="0 0 500 175" fill="none" xmlns="http://www.w3.org/2000/svg">
<path d="M52.1927 56.8802H17.3956L0 87.0288L17.3956 117.177H52.1927L69.5882 87.0288L52.1927 56.8802Z" fill="#94C19F"/>
<path d="M117.117 52.2197V17.4046L86.9838 0L56.8508 17.4046V52.2197L86.9838 69.6243L117.117 52.2197Z" fill="#18383E"/>
<path d="M121.775 117.177H156.572L173.968 87.0288L156.572 56.8802H121.775L104.379 87.0288L121.775 117.177Z" fill="#267B8D"/>
<path d="M56.8508 121.838V156.653L86.9838 174.058L117.117 156.653V121.838L86.9838 104.433L56.8508 121.838Z" fill="#5DAAA0"/>
<path d="M212.826 38.6728H227.506L234.777 64.523C235.211 66.1591 235.627 67.789 236.038 69.419C236.442 71.049 236.792 72.5401 237.082 73.8864C237.419 75.468 237.727 76.9833 238.017 78.4262H238.162C238.451 76.9833 238.759 75.4741 239.097 73.8864C239.386 72.5401 239.706 71.055 240.068 69.419C240.43 67.789 240.847 66.153 241.329 64.523L248.6 38.6728H263.498V90.162H253.783V60.6413C253.783 59.5848 253.795 58.4438 253.819 57.2183C253.844 55.9928 253.904 54.8277 254 53.729C254.049 52.4793 254.121 51.2357 254.218 49.986H254.073C253.831 51.1874 253.59 52.3646 253.355 53.5116C253.113 54.5198 252.86 55.5763 252.601 56.681C252.335 57.7858 252.088 58.8181 251.846 59.778L242.995 90.1681H232.991L224.356 59.778C224.067 58.8181 223.801 57.7858 223.566 56.681C223.324 55.5763 223.083 54.5198 222.848 53.5116C222.606 52.3586 222.365 51.1814 222.13 49.986H221.985C222.033 51.2357 222.106 52.4853 222.202 53.729C222.25 54.8337 222.299 55.9988 222.347 57.2183C222.395 58.4438 222.419 59.5848 222.419 60.6413V90.162H212.85V38.6728H212.826Z" fill="#18383E"/>
<path d="M287.965 91.2366C284.894 91.2366 282.172 90.7295 279.795 89.7213C277.418 88.7132 275.415 87.3307 273.785 85.5799C272.15 83.8292 270.919 81.7525 270.081 79.3498C269.242 76.9471 268.82 74.3814 268.82 71.6467C268.82 68.9119 269.26 66.3522 270.153 63.9797C271.04 61.6012 272.289 59.5486 273.894 57.822C275.499 56.0954 277.418 54.7251 279.65 53.7169C281.883 52.7087 284.339 52.2016 287.03 52.2016C290.004 52.2016 292.617 52.7389 294.874 53.8255C297.13 54.9062 299.025 56.4275 300.558 58.3955C302.09 60.3636 303.255 62.7059 304.051 65.4165C304.842 68.1271 305.24 71.1395 305.24 74.4538H278.468C278.854 77.3335 279.825 79.5913 281.382 81.2213C282.939 82.8513 285.111 83.6723 287.899 83.6723C289.817 83.6723 291.356 83.2617 292.502 82.4468C293.655 81.6318 294.494 80.527 295.024 79.1325H304.667C304.329 80.7625 303.719 82.314 302.832 83.7749C301.945 85.2419 300.793 86.5217 299.381 87.6265C297.963 88.7312 296.298 89.6066 294.379 90.2526C292.454 90.9106 290.318 91.2366 287.965 91.2366ZM287.174 59.7659C284.586 59.7659 282.613 60.4722 281.273 61.8909C279.928 63.3096 279.041 65.2414 278.612 67.6864H295.024C294.88 65.332 294.101 63.4243 292.683 61.9634C291.265 60.5024 289.431 59.7659 287.174 59.7659Z" fill="#18383E"/>
<path d="M309.777 53.2158H319.208V58.1842H319.425C320.433 56.506 321.827 55.0873 323.601 53.9342C325.375 52.7811 327.559 52.2076 330.147 52.2076C332.501 52.2076 334.564 52.7932 336.338 53.9704C338.112 55.1476 339.458 56.7233 340.369 58.6853H340.508C341.757 56.6689 343.325 55.0812 345.22 53.9342C347.115 52.7811 349.239 52.2076 351.592 52.2076C355.478 52.2076 358.476 53.3728 360.588 55.703C362.7 58.0333 363.756 61.2389 363.756 65.3139V90.156H353.969V66.968C353.969 64.8551 353.474 63.2734 352.491 62.2169C351.507 61.1604 350.101 60.6292 348.279 60.6292C346.216 60.6292 344.599 61.3597 343.422 62.8267C342.245 64.2936 341.66 66.2496 341.66 68.6946V90.156H331.873V66.968C331.873 64.8551 331.378 63.2734 330.395 62.2169C329.411 61.1604 328.005 60.6292 326.183 60.6292C324.168 60.6292 322.557 61.3597 321.362 62.8267C320.161 64.2936 319.564 66.2496 319.564 68.6946V90.156H309.777V53.2158Z" fill="#18383E"/>
<path d="M387.288 91.2366C384.41 91.2366 381.791 90.7355 379.444 89.7273C377.091 88.7192 375.063 87.3367 373.362 85.586C371.66 83.8353 370.339 81.7706 369.404 79.3921C368.468 77.0135 368.004 74.4599 368.004 71.7252C368.004 68.9904 368.468 66.4307 369.404 64.0582C370.339 61.6857 371.66 59.621 373.362 57.8643C375.063 56.1136 377.091 54.7311 379.444 53.7229C381.797 52.7147 384.41 52.2076 387.288 52.2076C390.166 52.2076 392.779 52.7147 395.132 53.7229C397.485 54.7311 399.512 56.1136 401.214 57.8643C402.916 59.615 404.237 61.6796 405.172 64.0582C406.107 66.4368 406.578 68.9904 406.578 71.7252C406.578 74.4599 406.107 77.0195 405.172 79.3921C404.237 81.7706 402.916 83.8353 401.214 85.586C399.512 87.3367 397.485 88.7192 395.132 89.7273C392.785 90.7355 390.166 91.2366 387.288 91.2366ZM387.288 83.7508C390.311 83.7508 392.622 82.646 394.233 80.4365C395.838 78.227 396.646 75.3232 396.646 71.7252C396.646 68.1271 395.844 65.2052 394.233 62.9776C392.622 60.7439 390.311 59.6271 387.288 59.6271C384.265 59.6271 381.948 60.7439 380.343 62.9776C378.732 65.2113 377.929 68.1271 377.929 71.7252C377.929 75.3292 378.732 78.233 380.343 80.4365C381.954 82.646 384.265 83.7508 387.288 83.7508Z" fill="#18383E"/>
<path d="M420.54 59.12H420.758C421.862 57.007 423.111 55.4253 424.499 54.3689C425.892 53.3124 427.666 52.7872 429.826 52.7872C430.834 52.7872 431.6 52.8838 432.131 53.077V61.6434H431.914C428.698 61.3114 426.061 62.0056 423.998 63.7322C421.934 65.4588 420.902 68.272 420.902 72.1598V90.162H411.116V53.2218H420.546L420.54 59.12Z" fill="#18383E"/>
<path d="M436.373 38.6667H446.16V47.4505H436.373V38.6667ZM436.373 53.2158H446.16V90.156H436.373V53.2158Z" fill="#18383E"/>
<path d="M475.744 90.156C475.454 89.7696 475.213 89.1961 475.026 88.4294C474.833 87.6627 474.688 86.8719 474.591 86.0509H474.447C473.964 86.7693 473.427 87.4333 472.83 88.031C472.226 88.6286 471.508 89.1478 470.669 89.5764C469.831 90.0111 468.835 90.3552 467.683 90.6208C466.53 90.8804 465.167 91.0132 463.58 91.0132C459.79 91.0132 456.695 90.0534 454.294 88.1336C451.892 86.2139 450.691 83.4067 450.691 79.706C450.691 77.6897 451.078 75.9872 451.844 74.5927C452.61 73.1982 453.666 72.0511 455.012 71.1335C456.357 70.2219 457.926 69.5156 459.724 69.0085C461.522 68.5074 463.453 68.109 465.517 67.8192C468.588 67.3846 470.844 66.9318 472.281 66.4488C473.723 65.9659 474.441 65.0302 474.441 63.6417C474.441 62.2954 473.928 61.2269 472.89 60.436C471.858 59.6452 470.307 59.2467 468.25 59.2467C465.945 59.2467 464.219 59.6693 463.067 60.5085C461.914 61.3476 461.269 62.6576 461.124 64.4325H452.417C452.465 62.8025 452.821 61.251 453.497 59.7901C454.167 58.3291 455.15 57.0432 456.448 55.9385C457.745 54.8337 459.374 53.9463 461.341 53.2762C463.308 52.6061 465.637 52.268 468.322 52.268C473.837 52.268 477.814 53.4573 480.233 55.8359C482.659 58.2144 483.865 61.5589 483.865 65.8814V84.6744C483.865 87.4574 484.3 89.1659 485.163 89.7877V90.1499L475.744 90.156ZM465.957 84.1794C467.351 84.1794 468.582 83.9741 469.662 83.5697C470.742 83.1652 471.653 82.6339 472.395 81.988C473.137 81.342 473.705 80.5934 474.085 79.7543C474.471 78.9152 474.664 78.0398 474.664 77.1222V71.5802C473.801 72.1115 472.757 72.5281 471.532 72.842C470.307 73.1559 469.071 73.4517 467.828 73.7415C465.239 74.315 463.314 74.9911 462.071 75.7578C460.822 76.5245 460.201 77.7742 460.201 79.5008C460.201 81.2273 460.732 82.4407 461.782 83.135C462.838 83.8353 464.231 84.1794 465.957 84.1794Z" fill="#18383E"/>
<path d="M500 38.6667H490.213V90.156H500V38.6667Z" fill="#18383E"/>
<path d="M212.826 110.513H215.891V120.872H228.9V110.513H231.965V134.878H228.9V123.359H215.891V134.878H212.826V110.513Z" fill="#18383E"/>
<path d="M253.319 135.385C251.478 135.385 249.819 135.065 248.347 134.431C246.868 133.797 245.619 132.91 244.6 131.775C243.58 130.64 242.79 129.294 242.234 127.736C241.679 126.179 241.402 124.494 241.402 122.677C241.402 120.86 241.679 119.176 242.234 117.618C242.79 116.061 243.58 114.714 244.6 113.579C245.619 112.444 246.868 111.557 248.347 110.923C249.819 110.289 251.478 109.969 253.319 109.969C255.159 109.969 256.812 110.289 258.29 110.923C259.769 111.557 261.018 112.444 262.038 113.579C263.057 114.714 263.848 116.061 264.403 117.618C264.958 119.176 265.235 120.86 265.235 122.677C265.235 124.494 264.958 126.179 264.403 127.736C263.848 129.294 263.057 130.64 262.038 131.775C261.018 132.91 259.769 133.797 258.29 134.431C256.818 135.071 255.159 135.385 253.319 135.385ZM253.319 132.698C254.749 132.698 256.01 132.445 257.096 131.932C258.188 131.419 259.105 130.724 259.853 129.837C260.601 128.949 261.163 127.893 261.537 126.668C261.911 125.442 262.098 124.114 262.098 122.683C262.098 121.252 261.911 119.924 261.537 118.699C261.163 117.473 260.601 116.411 259.853 115.511C259.105 114.612 258.182 113.911 257.096 113.398C256.01 112.891 254.749 112.632 253.319 112.632C251.889 112.632 250.627 112.891 249.541 113.398C248.449 113.911 247.532 114.612 246.784 115.511C246.036 116.411 245.475 117.473 245.101 118.699C244.726 119.924 244.539 121.252 244.539 122.683C244.539 124.114 244.726 125.442 245.101 126.668C245.475 127.893 246.036 128.949 246.784 129.837C247.532 130.724 248.455 131.419 249.541 131.932C250.634 132.439 251.889 132.698 253.319 132.698Z" fill="#18383E"/>
<path d="M283.53 135.355C281.828 135.355 280.338 135.131 279.065 134.691C277.792 134.25 276.73 133.634 275.879 132.849C275.028 132.065 274.377 131.141 273.918 130.072C273.466 129.004 273.206 127.857 273.134 126.631H276.133C276.543 130.809 279.047 132.904 283.657 132.904C284.495 132.904 285.274 132.807 285.992 132.614C286.71 132.421 287.319 132.137 287.832 131.763C288.345 131.388 288.737 130.911 289.027 130.332C289.31 129.752 289.455 129.088 289.455 128.34C289.455 127.501 289.28 126.806 288.924 126.263C288.574 125.72 288.08 125.261 287.446 124.899C286.812 124.536 286.046 124.235 285.147 123.993C284.248 123.758 283.258 123.51 282.166 123.263C281.098 123.033 280.085 122.768 279.119 122.46C278.154 122.152 277.309 121.753 276.585 121.252C275.855 120.751 275.282 120.123 274.847 119.363C274.413 118.602 274.202 117.642 274.202 116.483C274.202 115.487 274.401 114.588 274.799 113.791C275.197 112.994 275.758 112.318 276.483 111.762C277.207 111.207 278.081 110.778 279.107 110.482C280.127 110.187 281.255 110.042 282.48 110.042C284.001 110.042 285.316 110.229 286.414 110.603C287.512 110.977 288.429 111.497 289.154 112.155C289.878 112.813 290.451 113.616 290.855 114.557C291.265 115.499 291.549 116.525 291.706 117.642H288.81C288.58 115.892 287.929 114.588 286.849 113.724C285.769 112.861 284.333 112.432 282.54 112.432C280.881 112.432 279.554 112.764 278.558 113.434C277.557 114.105 277.062 115.077 277.062 116.35C277.062 117.033 277.219 117.606 277.538 118.071C277.858 118.536 278.299 118.934 278.866 119.266C279.433 119.598 280.109 119.864 280.893 120.069C281.678 120.274 282.522 120.468 283.427 120.649C284.61 120.896 285.744 121.174 286.831 121.482C287.923 121.79 288.888 122.212 289.727 122.762C290.565 123.305 291.235 124.017 291.736 124.893C292.237 125.768 292.484 126.885 292.484 128.249C292.484 129.384 292.261 130.398 291.821 131.28C291.38 132.167 290.759 132.91 289.962 133.513C289.166 134.117 288.224 134.576 287.138 134.896C286.052 135.198 284.845 135.355 283.53 135.355Z" fill="#18383E"/>
<path d="M301.782 110.513H311.931C313.229 110.513 314.357 110.718 315.322 111.122C316.288 111.533 317.09 112.112 317.724 112.861C318.249 113.453 318.647 114.141 318.931 114.926C319.214 115.71 319.359 116.568 319.359 117.497C319.359 119.743 318.719 121.5 317.434 122.762C316.155 124.023 314.17 124.651 311.491 124.651H304.848V134.872H301.782V110.513ZM304.848 122.164H311.249C312.975 122.164 314.254 121.759 315.081 120.957C315.908 120.154 316.324 119.043 316.324 117.636C316.324 116.163 315.896 115.046 315.045 114.298C314.194 113.549 312.981 113.175 311.418 113.175H304.848V122.164Z" fill="#18383E"/>
<path d="M328.18 110.513H331.246V134.878H328.18V110.513ZM328.386 105.743H331.04V108.979H328.386V105.743Z" fill="#18383E"/>
<path d="M340.133 110.513H359.406V113.205H351.302V134.878H348.237V113.205H340.133V110.513Z" fill="#18383E"/>
<path d="M372.179 110.513H375.618L384.609 134.878H381.272L378.684 127.452H368.975L366.35 134.878H363.219L372.179 110.513ZM369.862 124.959H377.833L375.039 116.779C374.925 116.441 374.804 116.073 374.683 115.674C374.556 115.276 374.442 114.908 374.327 114.569C374.213 114.159 374.086 113.748 373.953 113.344H373.887C373.748 113.73 373.627 114.129 373.513 114.539C373.398 114.877 373.277 115.252 373.139 115.662C373.006 116.073 372.879 116.447 372.764 116.785L369.862 124.959Z" fill="#18383E"/>
<path d="M393.026 110.513H396.091V132.046H408.859V134.878H393.026V110.513Z" fill="#18383E"/>
</svg>
