<svg width="160" height="100" viewBox="0 0 160 100" fill="none" xmlns="http://www.w3.org/2000/svg">
<g id="logo">
<g id="K&#195;&#182;hn&#201;&#153; loqonun yeri variant&#196;&#177;">
<path d="M23.0007 41.3395H12.9997L8 50L12.9997 58.6605H23.0007L28.0003 50L23.0007 41.3395Z" fill="#94C19F"/>
<path d="M41.6605 40.0007V29.9997L33 25L24.3395 29.9997V40.0007L33 45.0004L41.6605 40.0007Z" fill="#18383E"/>
<path d="M42.9993 58.6605H53.0004L58 50L53.0004 41.3395H42.9993L37.9997 50L42.9993 58.6605Z" fill="#267B8D"/>
<path d="M24.3395 59.9993V70.0004L33 75L41.6605 70.0004V59.9993L33 54.9997L24.3395 59.9993Z" fill="#5DAAA0"/>
<path d="M69.1682 36.1092H73.3874L75.4771 43.535C75.602 44.0049 75.7216 44.4732 75.8396 44.9414C75.9557 45.4096 76.0563 45.838 76.1396 46.2247C76.2367 46.679 76.3251 47.1143 76.4084 47.5288H76.45C76.5332 47.1143 76.6217 46.6808 76.7188 46.2247C76.802 45.838 76.8939 45.4113 76.998 44.9414C77.1021 44.4732 77.2217 44.0032 77.3604 43.535L79.4501 36.1092H83.7318V50.9H80.9398V42.4199C80.9398 42.1164 80.9433 41.7886 80.9502 41.4366C80.9571 41.0846 80.9745 40.7499 81.0022 40.4342C81.0161 40.0753 81.0369 39.718 81.0647 39.359H81.023C80.9537 39.7042 80.8843 40.0423 80.8167 40.3718C80.7473 40.6614 80.6745 40.9649 80.5999 41.2823C80.5236 41.5996 80.4525 41.8962 80.3831 42.1719L77.8391 50.9018H74.9638L72.4822 42.1719C72.3989 41.8962 72.3226 41.5996 72.255 41.2823C72.1856 40.9649 72.1163 40.6614 72.0486 40.3718C71.9793 40.0406 71.9099 39.7024 71.8423 39.359H71.8007C71.8145 39.718 71.8353 40.077 71.8631 40.4342C71.877 40.7516 71.8908 41.0863 71.9047 41.4366C71.9186 41.7886 71.9255 42.1164 71.9255 42.4199V50.9H69.1751V36.1092H69.1682Z" fill="#18383E"/>
<path d="M90.7639 51.2087C89.8812 51.2087 89.0991 51.0631 88.4159 50.7735C87.7326 50.4838 87.1568 50.0867 86.6886 49.5838C86.2187 49.0809 85.8649 48.4843 85.6238 47.7941C85.3828 47.1039 85.2614 46.3669 85.2614 45.5813C85.2614 44.7957 85.388 44.0604 85.6446 43.3789C85.8996 42.6956 86.2585 42.106 86.7198 41.61C87.1811 41.114 87.7326 40.7204 88.3742 40.4308C89.0159 40.1412 89.7217 39.9955 90.4952 39.9955C91.3501 39.9955 92.101 40.1498 92.7496 40.462C93.3982 40.7724 93.9427 41.2094 94.3832 41.7748C94.8237 42.3401 95.1584 43.013 95.3873 43.7916C95.6145 44.5703 95.7289 45.4356 95.7289 46.3877H88.0343C88.1453 47.2149 88.4245 47.8635 88.872 48.3317C89.3194 48.7999 89.9437 49.0358 90.7449 49.0358C91.2963 49.0358 91.7386 48.9179 92.0681 48.6838C92.3993 48.4496 92.6403 48.1323 92.7929 47.7317H95.5642C95.4671 48.1999 95.2919 48.6456 95.037 49.0653C94.7821 49.4867 94.4508 49.8543 94.045 50.1717C93.6375 50.489 93.1589 50.7405 92.6074 50.9261C92.0542 51.1151 91.4403 51.2087 90.7639 51.2087ZM90.5368 42.1684C89.7928 42.1684 89.2257 42.3713 88.8407 42.7789C88.454 43.1864 88.1991 43.7413 88.076 44.4437H92.7929C92.7513 43.7673 92.5276 43.2193 92.1201 42.7997C91.7125 42.38 91.1854 42.1684 90.5368 42.1684Z" fill="#18383E"/>
<path d="M97.033 40.2868H99.7436V41.7141H99.806C100.096 41.232 100.496 40.8244 101.006 40.4932C101.516 40.162 102.144 39.9972 102.888 39.9972C103.564 39.9972 104.157 40.1654 104.667 40.5036C105.177 40.8418 105.563 41.2944 105.825 41.858H105.865C106.224 41.2788 106.675 40.8227 107.22 40.4932C107.764 40.162 108.375 39.9972 109.051 39.9972C110.168 39.9972 111.03 40.3319 111.637 41.0013C112.244 41.6707 112.547 42.5916 112.547 43.7621V50.8983H109.734V44.2373C109.734 43.6303 109.592 43.176 109.309 42.8725C109.027 42.569 108.623 42.4164 108.099 42.4164C107.506 42.4164 107.041 42.6262 106.703 43.0477C106.365 43.4691 106.196 44.0309 106.196 44.7333V50.8983H103.384V44.2373C103.384 43.6303 103.241 43.176 102.959 42.8725C102.676 42.569 102.272 42.4164 101.748 42.4164C101.169 42.4164 100.706 42.6262 100.363 43.0477C100.018 43.4691 99.8459 44.0309 99.8459 44.7333V50.8983H97.033V40.2868Z" fill="#18383E"/>
<path d="M119.31 51.2087C118.483 51.2087 117.731 51.0648 117.056 50.7752C116.38 50.4856 115.797 50.0884 115.308 49.5855C114.819 49.0826 114.439 48.4895 114.17 47.8063C113.901 47.123 113.768 46.3894 113.768 45.6038C113.768 44.8183 113.901 44.083 114.17 43.4014C114.439 42.7199 114.819 42.1268 115.308 41.6222C115.797 41.1192 116.38 40.7221 117.056 40.4325C117.732 40.1429 118.483 39.9972 119.31 39.9972C120.138 39.9972 120.888 40.1429 121.565 40.4325C122.241 40.7221 122.824 41.1192 123.313 41.6222C123.802 42.1251 124.182 42.7182 124.45 43.4014C124.719 44.0847 124.855 44.8183 124.855 45.6038C124.855 46.3894 124.719 47.1247 124.45 47.8063C124.182 48.4895 123.802 49.0826 123.313 49.5855C122.824 50.0884 122.241 50.4856 121.565 50.7752C120.89 51.0648 120.138 51.2087 119.31 51.2087ZM119.31 49.0583C120.179 49.0583 120.843 48.741 121.306 48.1063C121.768 47.4716 122 46.6374 122 45.6038C122 44.5703 121.769 43.7309 121.306 43.091C120.843 42.4494 120.179 42.1285 119.31 42.1285C118.442 42.1285 117.776 42.4494 117.314 43.091C116.851 43.7327 116.621 44.5703 116.621 45.6038C116.621 46.6392 116.851 47.4733 117.314 48.1063C117.777 48.741 118.442 49.0583 119.31 49.0583Z" fill="#18383E"/>
<path d="M128.867 41.9829H128.93C129.247 41.3759 129.606 40.9215 130.005 40.6181C130.406 40.3146 130.916 40.1637 131.536 40.1637C131.826 40.1637 132.046 40.1915 132.199 40.247V42.7078H132.136C131.212 42.6124 130.454 42.8118 129.861 43.3078C129.268 43.8038 128.971 44.6119 128.971 45.7287V50.9H126.159V40.2886H128.869L128.867 41.9829Z" fill="#18383E"/>
<path d="M133.418 36.1075H136.231V38.6307H133.418V36.1075ZM133.418 40.2868H136.231V50.8983H133.418V40.2868Z" fill="#18383E"/>
<path d="M144.733 50.8983C144.65 50.7873 144.581 50.6226 144.527 50.4023C144.472 50.1821 144.43 49.9549 144.402 49.7191H144.361C144.222 49.9254 144.068 50.1162 143.896 50.2879C143.722 50.4596 143.516 50.6087 143.275 50.7318C143.034 50.8567 142.748 50.9555 142.417 51.0318C142.085 51.1064 141.693 51.1446 141.237 51.1446C140.148 51.1446 139.259 50.8688 138.568 50.3174C137.878 49.7659 137.533 48.9595 137.533 47.8964C137.533 47.3172 137.644 46.8282 137.864 46.4276C138.085 46.027 138.388 45.6975 138.775 45.4339C139.162 45.172 139.612 44.9691 140.129 44.8235C140.646 44.6795 141.201 44.5651 141.794 44.4818C142.677 44.357 143.325 44.2269 143.738 44.0882C144.153 43.9494 144.359 43.6806 144.359 43.2818C144.359 42.8951 144.212 42.5881 143.913 42.3609C143.617 42.1337 143.171 42.0193 142.58 42.0193C141.917 42.0193 141.421 42.1407 141.09 42.3817C140.759 42.6228 140.573 42.9991 140.532 43.509H138.029C138.043 43.0407 138.145 42.595 138.34 42.1754C138.532 41.7557 138.815 41.3863 139.188 41.069C139.56 40.7516 140.029 40.4967 140.594 40.3042C141.159 40.1117 141.829 40.0146 142.6 40.0146C144.186 40.0146 145.328 40.3562 146.024 41.0395C146.721 41.7227 147.068 42.6835 147.068 43.9252V49.3237C147.068 50.1231 147.193 50.6139 147.441 50.7925V50.8966L144.733 50.8983ZM141.921 49.1815C142.321 49.1815 142.675 49.1225 142.985 49.0063C143.296 48.8901 143.558 48.7375 143.771 48.552C143.984 48.3664 144.147 48.1514 144.257 47.9103C144.368 47.6693 144.423 47.4178 144.423 47.1542V45.5622C144.175 45.7148 143.875 45.8345 143.523 45.9247C143.171 46.0148 142.815 46.0998 142.458 46.1831C141.714 46.3478 141.161 46.542 140.804 46.7623C140.445 46.9825 140.266 47.3415 140.266 47.8375C140.266 48.3335 140.419 48.682 140.721 48.8815C141.024 49.0826 141.425 49.1815 141.921 49.1815Z" fill="#18383E"/>
<path d="M151.705 36.1075H148.892V50.8983H151.705V36.1075Z" fill="#18383E"/>
<path d="M69.1682 56.746H70.0491V59.7218H73.788V56.746H74.669V63.7451H73.788V60.4363H70.0491V63.7451H69.1682V56.746Z" fill="#18383E"/>
<path d="M80.8063 63.8908C80.2773 63.8908 79.8004 63.7989 79.3773 63.6168C78.9524 63.4347 78.5934 63.1798 78.3004 62.8538C78.0073 62.5277 77.7801 62.141 77.6206 61.6936C77.461 61.2462 77.3812 60.7623 77.3812 60.2404C77.3812 59.7184 77.461 59.2345 77.6206 58.7871C77.7801 58.3397 78.0073 57.953 78.3004 57.6269C78.5934 57.3009 78.9524 57.046 79.3773 56.8639C79.8004 56.6818 80.2773 56.5899 80.8063 56.5899C81.3352 56.5899 81.8104 56.6818 82.2352 56.8639C82.6601 57.046 83.0191 57.3009 83.3122 57.6269C83.6052 57.953 83.8324 58.3397 83.992 58.7871C84.1515 59.2345 84.2313 59.7184 84.2313 60.2404C84.2313 60.7623 84.1515 61.2462 83.992 61.6936C83.8324 62.141 83.6052 62.5277 83.3122 62.8538C83.0191 63.1798 82.6601 63.4347 82.2352 63.6168C81.8121 63.8006 81.3352 63.8908 80.8063 63.8908ZM80.8063 63.1191C81.2173 63.1191 81.5797 63.0463 81.8919 62.8989C82.2057 62.7515 82.4693 62.552 82.6844 62.2971C82.8994 62.0422 83.0607 61.7387 83.1682 61.3867C83.2757 61.0346 83.3295 60.6531 83.3295 60.2421C83.3295 59.8311 83.2757 59.4496 83.1682 59.0975C83.0607 58.7455 82.8994 58.4403 82.6844 58.1819C82.4693 57.9235 82.204 57.7223 81.8919 57.5749C81.5797 57.4292 81.2173 57.3547 80.8063 57.3547C80.3953 57.3547 80.0328 57.4292 79.7207 57.5749C79.4068 57.7223 79.1432 57.9235 78.9281 58.1819C78.7131 58.4403 78.5518 58.7455 78.4443 59.0975C78.3368 59.4496 78.283 59.8311 78.283 60.2421C78.283 60.6531 78.3368 61.0346 78.4443 61.3867C78.5518 61.7387 78.7131 62.0422 78.9281 62.2971C79.1432 62.552 79.4085 62.7515 79.7207 62.8989C80.0345 63.0445 80.3953 63.1191 80.8063 63.1191Z" fill="#18383E"/>
<path d="M89.4893 63.8821C89.0003 63.8821 88.5719 63.818 88.206 63.6914C87.8401 63.5648 87.5349 63.3879 87.2904 63.1625C87.0459 62.937 86.8586 62.6717 86.7268 62.3647C86.5967 62.0578 86.5221 61.7283 86.5013 61.3762H87.3632C87.4811 62.5763 88.2008 63.1781 89.5257 63.1781C89.7668 63.1781 89.9905 63.1503 90.1969 63.0948C90.4032 63.0393 90.5784 62.9578 90.7258 62.8503C90.8732 62.7428 90.9859 62.6058 91.0692 62.4393C91.1507 62.2728 91.1923 62.0821 91.1923 61.867C91.1923 61.626 91.142 61.4265 91.0397 61.2705C90.9391 61.1144 90.7969 60.9826 90.6148 60.8785C90.4327 60.7745 90.2125 60.6878 89.9541 60.6184C89.6957 60.5508 89.4113 60.4797 89.0974 60.4086C88.7904 60.3427 88.4991 60.2664 88.2216 60.1779C87.9442 60.0895 87.7014 59.975 87.4933 59.8311C87.2834 59.6872 87.1187 59.5068 86.9938 59.2883C86.869 59.0698 86.8083 58.794 86.8083 58.4611C86.8083 58.1749 86.8655 57.9166 86.9799 57.6876C87.0944 57.4587 87.2557 57.2645 87.4638 57.1049C87.6719 56.9454 87.9234 56.8223 88.2182 56.7373C88.5112 56.6523 88.8355 56.6107 89.1876 56.6107C89.6246 56.6107 90.0026 56.6645 90.3183 56.772C90.6339 56.8795 90.8975 57.0286 91.1056 57.2177C91.3137 57.4067 91.4784 57.6373 91.5946 57.9079C91.7125 58.1784 91.7941 58.4732 91.8391 58.7941H91.0067C90.9408 58.2911 90.7535 57.9165 90.4431 57.6686C90.1327 57.4206 89.72 57.2975 89.2049 57.2975C88.728 57.2975 88.3465 57.3928 88.0604 57.5853C87.7725 57.7778 87.6303 58.057 87.6303 58.4229C87.6303 58.6189 87.6754 58.7836 87.7673 58.9172C87.8592 59.0507 87.9858 59.1652 88.1488 59.2606C88.3118 59.3559 88.506 59.4322 88.7315 59.4912C88.9569 59.5502 89.1997 59.6056 89.4598 59.6577C89.7997 59.7288 90.1258 59.8085 90.4379 59.897C90.7518 59.9854 91.0293 60.1068 91.2703 60.2646C91.5114 60.4207 91.7039 60.6253 91.8478 60.8768C91.9917 61.1283 92.0629 61.4491 92.0629 61.841C92.0629 62.167 91.9987 62.4584 91.8721 62.7116C91.7455 62.9665 91.5669 63.1798 91.338 63.3532C91.109 63.5266 90.8385 63.6584 90.5264 63.7503C90.2142 63.8371 89.8674 63.8821 89.4893 63.8821Z" fill="#18383E"/>
<path d="M94.7352 56.746H97.6521C98.025 56.746 98.3493 56.8049 98.6267 56.9211C98.9042 57.0391 99.1349 57.2055 99.3169 57.4206C99.4678 57.5905 99.5823 57.7882 99.6638 58.0137C99.7453 58.2391 99.7869 58.4854 99.7869 58.7524C99.7869 59.3975 99.6031 59.9022 99.2337 60.2646C98.8661 60.6271 98.2955 60.8074 97.5255 60.8074H95.6162V63.7434H94.7352V56.746ZM95.6162 60.093H97.4562C97.9521 60.093 98.3198 59.9768 98.5574 59.7461C98.795 59.5155 98.9146 59.1964 98.9146 58.7923C98.9146 58.3692 98.7915 58.0483 98.547 57.8333C98.3025 57.6183 97.9539 57.5108 97.5047 57.5108H95.6162V60.093Z" fill="#18383E"/>
<path d="M102.322 56.746H103.203V63.7451H102.322V56.746ZM102.381 55.376H103.144V56.3055H102.381V55.376Z" fill="#18383E"/>
<path d="M105.758 56.746H111.297V57.5194H108.968V63.7451H108.087V57.5194H105.758V56.746Z" fill="#18383E"/>
<path d="M114.968 56.746H115.956L118.54 63.7451H117.581L116.837 61.6121H114.047L113.293 63.7451H112.393L114.968 56.746ZM114.302 60.8959H116.593L115.79 58.5461C115.757 58.449 115.722 58.3432 115.688 58.2287C115.651 58.1143 115.618 58.0085 115.585 57.9114C115.552 57.7934 115.516 57.6755 115.478 57.5593H115.459C115.419 57.6703 115.384 57.7848 115.351 57.9027C115.318 57.9998 115.284 58.1073 115.244 58.2252C115.206 58.3432 115.169 58.4507 115.136 58.5478L114.302 60.8959Z" fill="#18383E"/>
<path d="M120.96 56.746H121.841V62.9318H125.51V63.7451H120.96V56.746Z" fill="#18383E"/>
</g>
</g>
</svg>
