<svg width="290" height="191" viewBox="0 0 290 191" fill="none" xmlns="http://www.w3.org/2000/svg">
<g filter="url(#filter0_d_787_4952)">
<path d="M70 57C70 50.3726 75.3726 45 82 45H214C220.627 45 226 50.3726 226 57V133C226 139.627 220.627 145 214 145H82C75.3726 145 70 139.627 70 133V57Z" fill="#F7F7F7"/>
<path d="M35 88C35 81.3726 40.3726 76 47 76H179C185.627 76 191 81.3726 191 88V164C191 170.627 185.627 176 179 176H47C40.3726 176 35 170.627 35 164V88Z" fill="white"/>
<path d="M51 157C51 155.343 52.3431 154 54 154H102C103.657 154 105 155.343 105 157C105 158.657 103.657 160 102 160H54C52.3431 160 51 158.657 51 157Z" fill="#F5F4F4"/>
<path d="M51 147C51 145.343 52.3431 144 54 144H172C173.657 144 175 145.343 175 147C175 148.657 173.657 150 172 150H54C52.3431 150 51 148.657 51 147Z" fill="#DADADA"/>
<path d="M54 46C54 49.3137 51.3137 52 48 52C44.6863 52 42 49.3137 42 46C42 42.6863 44.6863 40 48 40C51.3137 40 54 42.6863 54 46Z" fill="#F7F7F7"/>
<path d="M251 89C251 92.3137 248.314 95 245 95C241.686 95 239 92.3137 239 89C239 85.6863 241.686 83 245 83C248.314 83 251 85.6863 251 89Z" fill="#F7F7F7"/>
<path d="M26 160C26 163.314 23.3137 166 20 166C16.6863 166 14 163.314 14 160C14 156.686 16.6863 154 20 154C23.3137 154 26 156.686 26 160Z" fill="#F7F7F7"/>
<path d="M184 31C184 34.3137 181.314 37 178 37C174.686 37 172 34.3137 172 31C172 27.6863 174.686 25 178 25C181.314 25 184 27.6863 184 31Z" fill="#F7F7F7"/>
<path d="M26 74C26 75.6569 24.6569 77 23 77C21.3431 77 20 75.6569 20 74C20 72.3431 21.3431 71 23 71C24.6569 71 26 72.3431 26 74Z" fill="#C4C4C4"/>
<path d="M260 123C260 124.657 258.657 126 257 126C255.343 126 254 124.657 254 123C254 121.343 255.343 120 257 120C258.657 120 260 121.343 260 123Z" fill="#C4C4C4"/>
<path d="M126 20C125.448 20 125 20.4477 125 21V22H124C123.448 22 123 22.4477 123 23C123 23.5523 123.448 24 124 24H125V25C125 25.5523 125.448 26 126 26C126.552 26 127 25.5523 127 25V24H128C128.552 24 129 23.5523 129 23C129 22.4477 128.552 22 128 22H127V21C127 20.4477 126.552 20 126 20Z" fill="#C4C4C4"/>
<path d="M273 55C272.448 55 272 55.4477 272 56V57H271C270.448 57 270 57.4477 270 58C270 58.5523 270.448 59 271 59H272V60C272 60.5523 272.448 61 273 61C273.552 61 274 60.5523 274 60V59H275C275.552 59 276 58.5523 276 58C276 57.4477 275.552 57 275 57H274V56C274 55.4477 273.552 55 273 55Z" fill="#C4C4C4"/>
<path d="M19 117C18.4477 117 18 117.448 18 118V119H17C16.4477 119 16 119.448 16 120C16 120.552 16.4477 121 17 121H18V122C18 122.552 18.4477 123 19 123C19.5523 123 20 122.552 20 122V121H21C21.5523 121 22 120.552 22 120C22 119.448 21.5523 119 21 119H20V118C20 117.448 19.5523 117 19 117Z" fill="#C4C4C4"/>
</g>
<defs>
<filter id="filter0_d_787_4952" x="0" y="0" width="290" height="191" filterUnits="userSpaceOnUse" color-interpolation-filters="sRGB">
<feFlood flood-opacity="0" result="BackgroundImageFix"/>
<feColorMatrix in="SourceAlpha" type="matrix" values="0 0 0 0 0 0 0 0 0 0 0 0 0 0 0 0 0 0 127 0" result="hardAlpha"/>
<feOffset dy="1"/>
<feGaussianBlur stdDeviation="7"/>
<feComposite in2="hardAlpha" operator="out"/>
<feColorMatrix type="matrix" values="0 0 0 0 0 0 0 0 0 0 0 0 0 0 0 0 0 0 0.06 0"/>
<feBlend mode="normal" in2="BackgroundImageFix" result="effect1_dropShadow_787_4952"/>
<feBlend mode="normal" in="SourceGraphic" in2="effect1_dropShadow_787_4952" result="shape"/>
</filter>
</defs>
</svg>
