<svg width="32" height="32" viewBox="0 0 32 32" fill="none" xmlns="http://www.w3.org/2000/svg">
<g id="stars/filled">
<path id="Vector" d="M2.71367 12.7751C2.64728 13.0124 2.65105 13.2639 2.72453 13.499C2.79802 13.7342 2.93805 13.9429 3.12762 14.0998L9.22896 19.1429L7.30523 27.7833C7.24901 28.0351 7.2705 28.2981 7.36686 28.5374C7.46321 28.7766 7.62987 28.9809 7.84474 29.1231C8.0596 29.2652 8.31251 29.3386 8.56993 29.3334C8.82735 29.3282 9.07712 29.2447 9.2861 29.094L15.9995 24.2546L22.7128 29.0902C22.9218 29.2409 23.1716 29.3244 23.429 29.3296C23.6864 29.3348 23.9393 29.2614 24.1542 29.1193C24.3691 28.9771 24.5357 28.7728 24.6321 28.5335C24.7284 28.2943 24.7499 28.0313 24.6937 27.7795L22.77 19.139L28.8713 14.096C29.061 13.9393 29.2011 13.7307 29.2748 13.4957C29.3485 13.2606 29.3525 13.0092 29.2863 12.7719C29.2202 12.5346 29.0867 12.3217 28.9022 12.1589C28.7176 11.9962 28.4898 11.8907 28.2466 11.8551L20.8602 10.7747L17.1423 3.31393C17.025 3.11672 16.8585 2.95342 16.6593 2.84002C16.4601 2.72661 16.2349 2.66699 16.0058 2.66699C15.7767 2.66699 15.5515 2.72661 15.3523 2.84002C15.1531 2.95342 14.9867 3.11672 14.8694 3.31393L11.1387 10.7786L3.75236 11.8589C3.50935 11.8946 3.2819 12.0002 3.09754 12.1628C2.91318 12.3254 2.77984 12.5381 2.71367 12.7751Z" fill="#FFD600"/>
</g>
</svg>
