<svg width="32" height="32" viewBox="0 0 32 32" fill="none" xmlns="http://www.w3.org/2000/svg">
<g id="interface/stars">
<path id="Vector" d="M2.04953 12.6508C1.97981 12.8994 1.98377 13.1629 2.06093 13.4092C2.13809 13.6556 2.28513 13.8743 2.48419 14.0388L8.89086 19.3228L6.87086 28.3761C6.81183 28.6399 6.8344 28.9155 6.93558 29.1662C7.03675 29.4169 7.21175 29.6309 7.43737 29.7799C7.66298 29.9289 7.92855 30.0057 8.19886 30.0003C8.46916 29.9948 8.73142 29.9073 8.95086 29.7494L16.0002 24.6788L23.0495 29.7454C23.269 29.9033 23.5312 29.9908 23.8015 29.9963C24.0718 30.0017 24.3374 29.9249 24.563 29.7759C24.7886 29.6269 24.9636 29.4129 25.0648 29.1622C25.166 28.9115 25.1886 28.6359 25.1295 28.3721L23.1095 19.3188L29.5162 14.0348C29.7153 13.8705 29.8625 13.652 29.9399 13.4057C30.0172 13.1594 30.0214 12.896 29.952 12.6474C29.8825 12.3987 29.7424 12.1756 29.5486 12.0051C29.3548 11.8346 29.1156 11.724 28.8602 11.6868L21.1042 10.5548L17.2002 2.73742C17.077 2.53079 16.9023 2.35968 16.6931 2.24086C16.4839 2.12204 16.2474 2.05957 16.0069 2.05957C15.7663 2.05957 15.5298 2.12204 15.3207 2.24086C15.1115 2.35968 14.9367 2.53079 14.8135 2.73742L10.8962 10.5588L3.14019 11.6908C2.88503 11.7282 2.64619 11.8388 2.45261 12.0091C2.25902 12.1795 2.11901 12.4024 2.04953 12.6508ZM11.9709 13.0974C12.1834 13.0664 12.3854 12.9845 12.5595 12.8587C12.7336 12.7329 12.8747 12.5669 12.9709 12.3748L16.0002 6.31476L19.0295 12.3748C19.1257 12.5669 19.2668 12.7329 19.4409 12.8587C19.615 12.9845 19.817 13.0664 20.0295 13.0974L25.4962 13.8974L20.7815 17.7868C20.5919 17.9435 20.4492 18.1496 20.3695 18.3823C20.2897 18.6151 20.2759 18.8653 20.3295 19.1054L21.7642 25.5401L16.7789 21.9534C16.552 21.7902 16.2796 21.7024 16.0002 21.7024C15.7207 21.7024 15.4484 21.7902 15.2215 21.9534L10.2362 25.5401L11.6709 19.1054C11.7245 18.8653 11.7107 18.6151 11.6309 18.3823C11.5511 18.1496 11.4085 17.9435 11.2189 17.7868L6.50153 13.8948L11.9709 13.0974Z" fill="#E3E3E3"/>
</g>
</svg>
